/* XPM */
static char *_c5e75b188b2420af7514147d9ace1228m5CykO0p4btUmKk[] = {
/* columns rows colors chars-per-pixel */
"64 64 240 2 ",
"   c #000501",
".  c #000B00",
"X  c #021300",
"o  c #041903",
"O  c #111B0D",
"+  c #0D2C00",
"@  c #162A03",
"#  c #0C3500",
"$  c #1B3C00",
"%  c #1A3804",
"&  c #1B3115",
"*  c #15221B",
"=  c #263B08",
"-  c #263A19",
";  c #352D10",
":  c #232F27",
">  c #333936",
",  c #2B372E",
"<  c #5F3A08",
"1  c #453F0B",
"2  c #653B07",
"3  c #0E4400",
"4  c #134500",
"5  c #1C4500",
"6  c #1D4B01",
"7  c #154800",
"8  c #1C5300",
"9  c #1F5D00",
"0  c #224400",
"q  c #234B01",
"w  c #2B4D02",
"e  c #294809",
"r  c #3B4600",
"t  c #324D0D",
"y  c #3A4B02",
"u  c #245301",
"i  c #2B5502",
"p  c #245B00",
"a  c #2B5B02",
"s  c #2B520B",
"d  c #2A5909",
"f  c #3D5301",
"g  c #325B02",
"h  c #33540C",
"j  c #355B0C",
"k  c #3A5C0C",
"l  c #365604",
"z  c #2E4B15",
"x  c #2B4415",
"c  c #324B1C",
"v  c #324E14",
"b  c #2F5317",
"n  c #365613",
"m  c #3A5410",
"M  c #345A13",
"N  c #3A5D12",
"B  c #38551A",
"V  c #2C6401",
"C  c #2C6A00",
"Z  c #356501",
"A  c #3B6507",
"S  c #346C00",
"D  c #3B6B03",
"F  c #3C6A0D",
"G  c #3C650D",
"H  c #367401",
"J  c #3D7402",
"K  c #3D7D01",
"L  c #3B720B",
"P  c #3C6C13",
"I  c #3C6218",
"U  c #3E7315",
"Y  c #364D21",
"T  c #3B5625",
"R  c #4C4D00",
"E  c #434B00",
"W  c #584602",
"Q  c #495400",
"!  c #455C00",
"~  c #495B02",
"^  c #525C04",
"/  c #595609",
"(  c #594812",
")  c #435A17",
"_  c #5A5913",
"`  c #654B0C",
"'  c #68530D",
"]  c #6B4B13",
"[  c #734815",
"{  c #685E13",
"}  c #76521C",
"|  c #426B0B",
" . c #476707",
".. c #556808",
"X. c #437401",
"o. c #4C7302",
"O. c #437D02",
"+. c #4B7D02",
"@. c #44740A",
"#. c #437A0B",
"$. c #4A7D0C",
"%. c #49720D",
"&. c #527C02",
"*. c #537D0B",
"=. c #57750D",
"-. c #43641C",
";. c #4A6B1C",
":. c #456A17",
">. c #497313",
",. c #457D15",
"<. c #4C7C15",
"1. c #4B741A",
"2. c #497916",
"3. c #547D13",
"4. c #537D1C",
"5. c #5A7816",
"6. c #506D1D",
"7. c #666113",
"8. c #74651C",
"9. c #425D21",
"0. c #43582B",
"q. c #4A4E2F",
"w. c #785C23",
"e. c #496927",
"r. c #576729",
"t. c #4C7422",
"y. c #4E7728",
"u. c #537422",
"i. c #547B23",
"p. c #567C27",
"a. c #4B6634",
"s. c #536B34",
"d. c #556C39",
"f. c #547333",
"g. c #5B7C37",
"h. c #4D733A",
"j. c #7A6A27",
"k. c #7C742C",
"l. c #726D32",
"z. c #5A595E",
"x. c #586846",
"c. c #597347",
"v. c #5B6E50",
"b. c #627A4C",
"n. c #647856",
"m. c #796948",
"M. c #5F6B61",
"N. c #6E6F69",
"B. c #885C29",
"V. c #86682B",
"C. c #8D6B32",
"Z. c #916B36",
"A. c #8A7535",
"S. c #8E6D30",
"D. c #3D8400",
"F. c #3D8901",
"G. c #458401",
"H. c #4A8302",
"J. c #448901",
"K. c #4A8902",
"L. c #45840A",
"P. c #4B830A",
"I. c #4B8B0B",
"U. c #478808",
"Y. c #518305",
"T. c #51830C",
"R. c #538B0C",
"E. c #558A03",
"W. c #56920A",
"Q. c #458212",
"!. c #4D8313",
"~. c #4D8819",
"^. c #538214",
"/. c #548A13",
"(. c #54831B",
"). c #558A1B",
"_. c #5A871A",
"`. c #559411",
"'. c #608714",
"]. c #5B8323",
"[. c #558624",
"{. c #5E9222",
"}. c #588A2B",
"|. c #628829",
" X c #66893A",
".X c #64902F",
"XX c #69844A",
"oX c #6B8357",
"OX c #738D59",
"+X c #769C4F",
"@X c #758764",
"#X c #7A9266",
"$X c #77827E",
"%X c #81976B",
"&X c #869976",
"*X c #8CA379",
"=X c #93AE79",
"-X c #979388",
";X c #94A787",
":X c #92A493",
">X c #9BB685",
",X c #A8B898",
"<X c #AEBEA2",
"1X c #B6CB9C",
"2X c #B7C8A8",
"3X c #BCD5A9",
"4X c #B9C6B8",
"5X c #BCD0B8",
"6X c #C2D8AB",
"7X c #C6D6B8",
"8X c #CFCBBD",
"9X c #CDDCC8",
"0X c #CDD4D4",
"qX c #D8DBD4",
"wX c #D4E5C3",
"eX c #D6E7CB",
"rX c #DCF4C9",
"tX c #DBE9D6",
"yX c #D7EACD",
"uX c #E8F8D9",
"iX c #EBEEDC",
"pX c #EBF4EA",
"aX c #EEFAEA",
"sX c #E9F9E2",
"dX c #F4FEE5",
"fX c #F2F5EC",
"gX c #F4FEEC",
"hX c #FBFFED",
"jX c #FBFCE6",
"kX c #F4EEF3",
"lX c #EEF7F6",
"zX c #F4F4F3",
"xX c #FCF5F5",
"cX c #F5FDF3",
"vX c #FCFEF4",
"bX c #F4F5FB",
"nX c #FAF6FC",
"mX c #F6FCFB",
"MX c #FEFEFE",
"NX c #F1EDEE",
/* pixels */
"MXMXMXMXMXMXMXMXMXMXMXMXMXMXMXMXMXMXMXMXMXMXMXMXMXMXMXMXMXMXMXMXMXMXMXMXMXMXMXMXvXvXMXMXMXMXMXMXMXMXMXMXMXMXMXMXMXMXMXMXMXMXMXMX",
"MXMXMXMXMXMXMXMXMXMXMXMXMXMXMXMXMXMXMXMXMXMXMXMXMXMXMXMXMXMXMXMXMXMXMXMXMXMXMXMXMXMXvXMXMXMXMXMXMXMXMXmXMXMXmXMXMXMXMXMXMXMXMXMX",
"MXMXMXMXMXMXMXMXMXMXMXMXMXMXMXMXMXMXMXMXMXMXMXMXMXMXMXMXMXMXMXMXMXMXvXMXMXMXMXnXMXMXMXMXMXMXMXMXMXMXMXMXMXMXMXMXMXMXMXMXMXMXMXMX",
"MXMXMXMXMXMXMXMXMXMXMXMXMXMXMXMXMXMXMXMXMXMXMXMXMXMXMXMXMXMXMXMXvXvXvXMXMXMXMXMXMXMXMXMXMXMXMXMXMXMXMXMXMXMXMXMXMXMXvXMXvXvXMXvX",
"MXMXMXMXMXMXMXMXMXMXMXMXMXMXMXMXMXMXMXMXMXMXMXMXMXMXMXMXMXMXMXMXvXvXvXvXMXMXMXMXMXMXMXMXMXMXMXMXMXMXMXMXMXMXMXvXMXvXMXvXvXMXvXMX",
"MXMXMXMXMXMXMXMXMXMXMXMXMXMXMXMXMXMXMXMXMXMXMXMXMXMXMXMXMXMXMXMXvXvXMXMXMXMXMXMXMXMXMXMXMXMXMXMXMXMXMXMXMXMXvXMXvXvXMXMXMXMXMXMX",
"MXMXMXMXMXMXMXMXMXMXMXMXMXMXMXMXMXMXMXMXMXMXMXMXMXMXMXMXMXMXMXMXvXvXMXMXMXMXMXMXMXMXMXMXMXMXMXMXMXMXMXMXvXvXvXvXMXvXMXMXMXMXMXMX",
"MXMXMXMXMXMXMXMXMXMXMXMXMXMXMXMXMXMXMXMXMXMXMXMXMXMXMXMXMXMXMXMXvXMXMXMXMXMXMXMXMXMXMXnXMXMXMXMXMXMXMXMXMXMXMXMXMXMXMXMXMXMXMXMX",
"MXMXMXMXMXMXMXMXMXMXMXMXMXMXMXMXMXMXMXMXMXMXMXMXMXMXMXMXzXMXMXMXMXxXMXMXMXMXnXMXmXMXMXvXgXvXMXvXMXMXMXMXnXMXMXvXMXMXMXMXMXMXMXMX",
"MXMXMXMXMXMXMXMXMXMXMXMXMXMXMXMXMXMXMXMXMXMXMXMXnXMXcXMXMXMXMXMXMXMXMXnXMXvXMXyX,X<XwXuXhXfXfXMXMXMXnXMXMXMXMXnXMXvXMXMXMXMXMXMX",
"MXMXMXMXMXMXMXMXMXMXMXMXMXMXMXMXMXMXMXMXMXMXMXMXMXMXzXMXvXvXMXMXMXnXMXMXjX7X#Xt ) ) t x.wXvXMXmXmXMXmXMXMXMXMXnXMXMXMXMXvXvXvXvX",
"MXMXMXMXMXMXMXMXMXMXMXMXMXMXMXMXMXMXMXMXMXMXMXMXcXMXMXMXvXMXxXMXbXnXMXgX,X) :.].5.].p.;.= 2XMXmXlXmXmXMXMXnXbXMXMXMXMXvXvXvXvXvX",
"MXMXMXMXMXMXMXMXMXMXMXMXMXMXMXMXMXMXMXMXMXMXMXMXMXnXMXvXvXMXcXMXMXnXgXc.$ | +.Y.Y.+.@.|.g.c 9XmXgXgXhXaXvXMXxXmXMXMXMXnXMXvXvXhX",
"MXMXMXMXMXMXMXMXMXMXMXMXMXMXMXMXMXMXMXMXMXMXMXMXMXfXMXMXMXxXvXvXyXn.x $ g a C G.O.W.H.@.[.a.a.3X3X%X2XdXdXhXMXMXMXMXMXMXMXvXvXMX",
"MXMXMXMXMXMXMXMXMXMXMXMXMXMXMXMXMXMXMXMXMXMXMXMXMXnXvXMX8XM.N.x.v w |.i.(./.K U.K.H D.L.,.P # w h ;.m r.<XjXvXvXMXMXMXMXMXMXMXMX",
"MXMXMXMXMXMXMXMXMXMXMXMXMXMXMXMXMXMXMXMXMXMXMXMXMXvXcXvX-XO - x m A 4.$.L.O.G.D.J.D.I.K 8 8 ~.<.5._.p.1.w XXdXvXMXMXMXMXMXMXMXMX",
"MXMXMXMXMXMXMXMXMXMXMXMXMXMXMXMXnXMXMXMXMXMXMXvXvXvXvXjX@XB I i 0 0 D J G.D.I.D.D.~.C p J !.P.#.!.#.!.#.{.q b.vXbXmXMXMXMXMXnXvX",
"MXMXMXMXMXMXMXMXMXMXMXMXMXMXMXMXnXMXMXnXmXMXvXvXvXxXvX-X@ a.e.y.e.$ q o.G.I.K Q.Q.8 p !.P.H.R.L.O.L.L.H.G._.e 2XMXmXMXnXMXMXMXvX",
"MXMXMXMXMXMXMXMXMXMXMXMXMXMXMXMXMXMXvXMXMXvXvXvXvXMXkXz.0XNX5X: - T M i <./.,.U 3 L W.K.G.G.D.K G.H.H.H.O./.-.c.mXmXMXvXMXMXMXvX",
"MXMXMXMXMXMXMXMXvXMXvXMXMXnXMXMXMXvXMXvXMXvXMXvXbXnXNX, 0XnXN.    . + -.1.D a $ G Z J H.H.H.U.U.G.G.G.K.G.H  Xc 9XMXvXMXMXMXMXMX",
"mXMXMXMXMXvXMXMXMXvXMXMXvXMXMXvXvXvXMXMXMXMXnXMXMXMXpXx.N.<X, N.  , @ g.6.0 %.#.F F G d U ).D.Q.D.D.J.K.K.K.1.N &XvXvXMXMXMXnXMX",
"MXMXmXMXMXMXmXMXMXMXMXvXMXvXMXMXvXMXvXMXMXMXMXMXmXvXyX0.T b.X   > . n.9.;.;.|  .k l N s 4 p L Q.I.K J.G.G.E.$.t.s.dXvXvXMXMXMXnX",
"MXMXMXMXMXMXMXMXMXMXMXMXMXMXMXMXMXMXMXnXnXMXnXbXtX#XN $ I g.w @ @ 0.6Xe.u.6.k = = ) p.l A <.C 9 L.O.K.G.G.O._.4.t 7XvXzXMXMXMXMX",
"MXvXMXMXMXMXMXMXMXMXMXMXMXMXMXMXMXmXMXnXMXnXkXqX@ h <.X.Y.o.|.1.0 f.XXe.r.g.1XwX,X0.9.].A Z J K p L.U.H.G.K.J ].w *XdXzXMXnXMXMX",
"MXvXMXMXMXnXMXMXMXMXnXMXMXnXMXMXmXMXMXMXnXnXvXx.t 4.+.H.G.H.<.A 4.P t.G T aXaXmXM.. o c e.4.Z @.L S O.U.G.G.P.3.;.s.jXvXMXMXMXMX",
"fXMXMXzXMXMXnXMXMXMXMXMXnXMXMXmXMXbXMXnXxXnX8Xr.r.f E.H.K.G.D p 3 $.Q.i h.v.sX:X. N.>   = ) p.Z L V O.I.H.K.G.$.u.) tXMXMXMXMXMX",
"MXMXMXMXnXnXMXMXMXMXMXMXMXMXvXMXMXMXMXMXkXnX8X; ) 5.o.K.H.K C K `.K ,.V 9 e.c.b X : * * o #X X2.P V L I.G.H.H.+.p.e 2XcXMXMXMXMX",
"nXNXMXMXnXMXMXpXmXvXfXgXcX7X,XhXcXnXnXMXnXnXNX< r.~ 5.&.O.G.L.I.D.K.J }.8 9 t.-.e X X & . #X+Xp F V H L.G.F.O.H.(.= ,XMXMXnXMXMX",
"MXMXMXMXMXpXMXcXgXhXdXrXOXB 9.a.uXmXMXMXMXxX-X; l.( ^ =.'.Y.G.K G.K.I.L.C C ,.S ^._.%.| 4.Z F 2.L S H H.G.G.D.K.(.0 2XmXvXMXMXnX",
"nXnXnXMXMXaXcXsXrXrX>Xf.-.f.p.M n.cXmXMXMXnXN.q.1 A.R _ ..&.P.G.K G.G.L.H H G.G.S V &.X.X.J {.!.!.O.G.G.J.J.G.G.(.n 5XMXMXMXMXMX",
"MXMXMXcXaXcX2Xx.d.h.M j u 6 J :.0.vXmXMXkXjXm.l.} W j./ Q  .4.P.W.G.L.O.~.C H I.L.!.p a Z O.G.K P.U.K.G.G.K.G.G.^.j 9XmXMXMXMXMX",
"MXnXmXMXmXaXb.a.f.y.:.2.u 6 ).(.e.,XsXhXjXjXE ] Z.] W j.k._ r  .o.Y.T.!.,.H C I.L.Q.[.,.~.~.G.K.O.G.K.D.D.J.G.G.*.s 9XlXMXMXnXMX",
"nXMXMXMXMXgXb.e.4.!.!.[.2.i %.| s % T n.%Xd.y R k.j.' W [ S.S.' R Q  ...^.R.L.K D.G.L.K L.G.K I.P.H.O.D.J.G.G.O.^.w 9XbXMXMXMXMX",
"MXMXnXMXmXgXOXG (.#.#.D 6 5 i.G 0 z c % = 0 ) 5.y 8.A.} 2 [ B.S.V.} ' R E  .&.^.T./.P.P.L.L.O.O.L.H.G.G.J.G.G.L.3.h tXmXMXnXMXMX",
"xXMXMXnXMX7Xx w 4 3 8 p 8 a 1.4 0 h s e s 5 G 5.=.Q / V.S.[ 2 ] V.B.Z.S.8.{ R R R Q ! ..5.<.%.D P.G.G.G.G.G.H.P.4.) aXMXMXxXMXMX",
"MXMXMXnXvX@Xe.t.D K ,.~..Xi.i + i d 6 b I 5 i 3.5.=.^ R { A.j.` 2 2 [ B.Z.Z.C.V.j.8.7.R E y l 4.$.H.G.G.G.G.H.&.:.d.mXMXMXvXMXMX",
"nXfXMXMXaX,X) .X[.).Q.U ;.I 7 $ g i i 6 8 6 6 ^.*.*.=...^ ^ 7.j.A.B.] < < 2 [ } } } V.j.k._ = ..Y.H.G.G.G.G.H.T.N oXmXMXMXvXMXMX",
"nXMXMXMXMXgXe.g Z p p 8 8 I d 7 i i a p i a 7 !.&.+.Y.5.=. .! Q R _ j.j.j.w.} [ [ 2 ` ` k.8.1 =.H.H.G.G.G.G.K.T.n ;XMXcXvXMXMXMX",
"MXMXnXnXvXuX1X0 <.J U.T.~.}.b e i u q i d a 4 #.P.G.+.Y.T.*.*.=. . .! f y Q _ { { { { / ..Q  .*.H.G.G.G.G.G.K.T.c 4XMXvXvXMXMXMX",
"MXnXMXMXvXcX>XI 4.P.H.H.!.P # b q j q i d s 7 L P.G.G.G.P.P.H.Y.T.T.*.T.^.=. .! ~ ..! o. .o._.O.H.H.G.G.G.H.Y.^.c 0XMXvXMXnXMXMX",
"vXvXMXnXnXmX#Xe.3.+.H.O.Z l % b n e B n t M q a ~.G.D.J.G.G.G.K.H.O.H.G.G.U.P.P.T.P.P.P.H.J.J.J.J.G.G.K H.E.Y.>.v.mXzXMXvXMXMXMX",
"vXvXMXMXMXmX2Xn | o.D Z | g.z + x % = = - & x s Q.G.F.F.G.J.G.G.H.G.H.D.D.J.G.G.G.G.G.H.G.D.F.F.J.G.G.H.H.H.T.g &XMXmXMXvXMXMXnX",
"MXMXMXMXnXbXcX@X# %.X.&.|.G c.tX:X&X&X%X@Xn.v.b ,.H.F.D.J.G.G.G.H.H.G.G.F.D.J.F.D.G.G.G.H.H.G.H.G.K.H.G.O.+.3.t 4XmXMXvXMXMXMXMX",
"MXnXMXnXMXmXMXeX) XX5.|.l r.uXMXnXcXvXjXMXmXcX*XF P.J.D.J.J.G.G.H.G.G.G.G.F.F.G.G.H.O.H.H.+.+.H.G.G.G.U.H.Y.;.e.pXMXMXnXMXMXMXMX",
"MXnXMXMXMXMXmXgXx.x h w b.uXvXlXMXMXhXjXnXnXmX;Xj P.J.D.G.H.O.H.H.G.G.G.D.D.G.G.H.H.&.&.&.&.&.H.H.J.K U.H.R.k &XMXnXMXnXMXMXnXMX",
"MXMXnXMXnXMXMXgXsX2X;X7XjXhXMXMXmXmXvXvXMXMXMX9Xk $.K.G.G.L.H.H.O.G.D.G.G.G.J.G.H.+.+.+.+.&.+.O.H.G.G.G.O.T.B 6XMXnXMXMXMXMXmXMX",
"MXMXvXvXjXvXMXMXmXMXvXcXvXvXMXMXMXmXvXhXMXnXMXpXe.#.G.G.G.L.$.+.P.H.H.G.G.G.G.G.H.H.O.H.G.G.F.F.G.D.L.H.H.+.f.sXcXMXMXnXMXMXvXMX",
"MXMXMXvXvXvXzXMXMXmXMXfXMXMXnXMXMXMXvXvXMXMXMXcXf.2.H.G.O.L.P.O.O.P.G.G.G.G.G.G.H.G.G.G.G.F.F.F.J.D.P.O.H.@.OXcXcXMXMXMXMXMXmXMX",
"MXMXMXMXMXMXMXMXMXMXMXMXMXMXMXMXMXMXMXMXnXMXMXaXXXU /.D.G.G.P.O.+.H.G.G.G.G.G.G.G.H.G.G.G.J.G.D.D.G.G.L.4.j 3XjXvXvXMXMXMXMXMXMX",
"MXMXMXMXMXMXMXMXMXMXMXMXMXMXMXMXMXnXMXvXMXMXmXcXXXP P.G.K.G.G.G.H.K.G.G.G.G.G.H.G.G.G.H.G.U.G.K.J.J.O.~.y.f.uXhXMXMXMXMXMXnXMXMX",
"MXMXMXMXMXMXMXMXMXMXMXMXMXMXMXMXMXnXvXMXMXMXlXgXXXF P.H.K.H.G.H.G.H.G.G.G.G.G.G.H.G.O.H.H.G.G.G.G.H.O.[.I %XgXaXnXmXbXnXMXMXMXnX",
"MXMXMXMXMXMXMXMXMXMXMXMXMXMXMXMXMXnXMXMXMXMXmXgXg.@.P.G.G.K H.G.G.G.G.G.G.G.G.H.G.O.H.H.K.U.G.G.G.U.(.[.M 3XgXcXMXMXMXMXMXmXMXMX",
"MXMXMXMXMXMXMXMXMXMXMXMXMXMXMXMXMXnXMXvXMXMXmXuXy.2.Y.G.G.G.G.G.G.G.G.G.G.G.K.H.O.G.H.H.G.H.O.K O.J D j q =X6XwX7XeXaXgXcXMXMXMX",
"MXMXMXMXMXMXMXMXMXMXMXMXMXMXMXMXMXMXMXvXMXMXvX2XI %.U.G.G.G.G.G.G.G.G.G.G.G.H.H.G.G.G.G.G.H S H V Z D A P a k s B B s.*XeXgXcXaX",
"MXMXMXMXMXMXMXMXMXMXMXMXMXMXMXMXMXMXvXMXMXcXaXoX:.$.H.G.J.K.G.H.G.G.G.G.G.G.G.G.U.G.H.G.O.H S H $.<.#.<.{.$._._.(.4.:.-.9.oX3XdX",
"MXMXMXMXMXMXMXMXMXMXMXMXMXMXMXMXMXMXvXvXMXmXuXT i.P.O.H.G.G.G.G.G.G.G.G.G.G.G.G.H.K G.H.P.G.U.I.+.P.H.+.O.R.O.P.H.+.!.(.i.I -.e.",
"MXMXMXMXMXMXMXMXMXMXMXMXMXMXMXMXMXMXvXvXMXvX5XB 4.P.H.J.G.G.G.H.G.K.G.G.G.G.G.G.G.H.G.G.G.G.G.H.G.G.G.G.G.G.G.G.P.G.G.L.P.^.<.>.",
"MXMXMXMXMXMXMXMXMXMXMXMXMXMXMXMXMXMXMXMXMXvX,Xn 3.H.G.G.G.G.G.G.H.H.G.G.G.G.G.G.G.G.O.H.G.H.G.G.K.G.G.J.J.D.G.J.G.D.D.G.U.P.+.O.",
"MXMXMXMXMXMXMXMXMXMXMXMXMXMXMXMXMXMXMXMXcXcX&XM !.U.G.G.G.G.G.H.H.G.G.G.K.G.G.G.G.H.G.G.G.H.G.H.G.G.G.G.G.F.F.D.F.J.D.G.G.H.L.L.",
"MXMXMXMXMXMXMXMXMXMXMXMXMXMXMXMXMXMXMXMXmXcX%XM ^.H.G.G.G.G.G.G.H.G.G.H.H.G.G.G.G.H.O.H.G.O.G.G.G.G.G.F.G.G.G.D.J.G.J.G.D.D.H.P.",
"MXMXMXMXMXMXMXMXMXMXMXMXMXMXMXMXMXnXMXMXMXcX*Xk T.G.G.G.G.G.H.G.K.G.G.G.H.G.G.G.O.H.G.G.G.G.G.G.H.D.L.L.G.G.G.G.G.K.G.G.H.G.D.Q.",
"MXMXMXMXMXMXMXMXMXMXMXMXMXMXMXMXMXbXMXMXMXcX%XG T.H.G.G.L.L.H.H.H.G.G.G.H.H.G.H.G.H.G.G.G.H.G.G.G.G.L.G.G.H.G.H.G.G.G.H.G.G.L.L.",
"MXMXMXMXMXMXMXMXMXMXMXMXMXMXMXMXMXnXMXMXMXaXc.;.P.G.G.G.H.G.G.G.H.H.G.G.G.G.G.G.G.G.G.H.G.H.H.G.G.J.G.G.+.P.$.P.H.H.H.H.G.G.H.G.",
"MXMXMXMXMXMXMXMXMXMXMXMXMXMXMXMXMXnXMXmXMXcXc t.T.G.G.D.P.U.G.G.G.H.G.G.G.G.G.G.G.H.G.O.G.G.G.G.J.J.G.G.H.P.$.$.$.&.H.G.G.J.G.G."
};
