/* XPM */
static char *_ef71243d7ea4b1aa6c6e39cedbcec7fbzWc0DlePzM5YlQ1[] = {
/* columns rows colors chars-per-pixel */
"64 64 255 2 ",
"   c #010202",
".  c #010B01",
"X  c #05060A",
"o  c #071603",
"O  c #121D0D",
"+  c #0B0B13",
"@  c #121617",
"#  c #193607",
"$  c #1A2D12",
"%  c #25331B",
"&  c #2D352A",
"*  c #163A20",
"=  c #7C3919",
"-  c #7C3D22",
";  c #673E20",
":  c #4D3022",
">  c #2B4B15",
",  c #2B5919",
"<  c #355A18",
"1  c #2B540B",
"2  c #2D611C",
"3  c #3B631B",
"4  c #33631B",
"5  c #395B26",
"6  c #3C5A39",
"7  c #39492F",
"8  c #346423",
"9  c #3B6424",
"0  c #3B6B25",
"q  c #3D652A",
"w  c #3D6C2B",
"e  c #366627",
"r  c #3A6B2D",
"t  c #5D4D1B",
"y  c #5B4A18",
"u  c #495619",
"i  c #58551D",
"p  c #4F4E18",
"a  c #674A18",
"s  c #6F5218",
"d  c #46681E",
"f  c #435D2C",
"g  c #46572D",
"h  c #5C5624",
"j  c #455937",
"k  c #56482B",
"l  c #614A25",
"z  c #665524",
"x  c #7A552B",
"c  c #734A35",
"v  c #7D5731",
"b  c #6D4832",
"n  c #426B26",
"m  c #426C2D",
"M  c #466929",
"N  c #566B2B",
"B  c #46742C",
"V  c #547829",
"C  c #4B6535",
"Z  c #426C35",
"A  c #4B6B34",
"S  c #48663A",
"D  c #516C3C",
"F  c #5A6935",
"G  c #447332",
"H  c #4A7334",
"J  c #4C7B34",
"K  c #4C7B3A",
"L  c #497539",
"P  c #537D36",
"I  c #52733C",
"U  c #527C3D",
"Y  c #5A7D3B",
"T  c #587734",
"R  c #626935",
"E  c #647739",
"W  c #6D672E",
"Q  c #0B3A69",
"!  c #113E5B",
"~  c #15435C",
"^  c #154966",
"/  c #255463",
"(  c #265269",
")  c #3E6A5A",
"_  c #474948",
"`  c #535A52",
"'  c #705249",
"]  c #4A6A41",
"[  c #576B47",
"{  c #5D7549",
"}  c #5D7C4B",
"|  c #587944",
" . c #596955",
".. c #507152",
"X. c #627C49",
"o. c #657957",
"O. c #6A6D52",
"+. c #6A7966",
"@. c #727671",
"#. c #85391B",
"$. c #842E13",
"%. c #863E21",
"&. c #86411D",
"*. c #874629",
"=. c #96522E",
"-. c #8B4734",
";. c #865834",
":. c #9C5C3B",
">. c #975635",
",. c #88582F",
"<. c #A35738",
"1. c #A7512D",
"2. c #8A6238",
"3. c #9C633E",
"4. c #95653D",
"5. c #A3623D",
"6. c #B4653E",
"7. c #8B5E50",
"8. c #A75D45",
"9. c #B15E49",
"0. c #9E6444",
"q. c #9A6747",
"w. c #966A51",
"e. c #A46344",
"r. c #A86647",
"t. c #57852E",
"y. c #4D8439",
"u. c #548335",
"i. c #5A8435",
"p. c #548C35",
"a. c #55843C",
"s. c #5B843C",
"d. c #568B3C",
"f. c #5B8C3D",
"g. c #5A8D35",
"h. c #54913D",
"j. c #5C923C",
"k. c #5B9136",
"l. c #4C8328",
"z. c #61853D",
"x. c #618B3D",
"c. c #6B803F",
"v. c #678B3E",
"b. c #558442",
"n. c #5B8544",
"m. c #568C42",
"M. c #5B8C42",
"N. c #5D844A",
"B. c #5E8C4B",
"V. c #57874D",
"C. c #549242",
"Z. c #5D9244",
"A. c #5D924A",
"S. c #5E9945",
"D. c #548E48",
"F. c #628444",
"G. c #628B43",
"H. c #6B8B45",
"J. c #63844C",
"K. c #638B4B",
"L. c #6B8C4B",
"P. c #6B8447",
"I. c #738C4B",
"U. c #639244",
"Y. c #64934B",
"T. c #6A954C",
"R. c #669747",
"E. c #658C52",
"W. c #6C8B59",
"Q. c #698756",
"!. c #728D5B",
"~. c #659352",
"^. c #6B9354",
"/. c #6B9856",
"(. c #73975A",
"). c #75904D",
"_. c #668965",
"`. c #778966",
"'. c #6D9566",
"]. c #789C65",
"[. c #7D9677",
"{. c #5F9269",
"}. c #859976",
"|. c #8AA47A",
" X c #0E3193",
".X c #093CB3",
"XX c #164489",
"oX c #0742BD",
"OX c #0D43AF",
"+X c #356287",
"@X c #586FAB",
"#X c #003CFC",
"$X c #113EF9",
"%X c #0B45C9",
"&X c #1348D4",
"*X c #1347D1",
"=X c #1445E7",
"-X c #0345FE",
";X c #0C43FD",
":X c #0947FB",
">X c #0B42EA",
",X c #2643CB",
"<X c #7E9082",
"1X c #438180",
"2X c #6D96CE",
"3X c #869783",
"4X c #939291",
"5X c #A29F9C",
"6X c #A39282",
"7X c #96A789",
"8X c #9CAB94",
"9X c #94B092",
"0X c #A3B598",
"qX c #ABA99B",
"wX c #ACBAA4",
"eX c #B3BBAB",
"rX c #ACB1AF",
"tX c #9CA6A7",
"yX c #C1AAA2",
"uX c #9EC1A0",
"iX c #B5C4A8",
"pX c #B1C8AF",
"aX c #C3D5B9",
"sX c #CFC6B9",
"dX c #93B8D5",
"fX c #B4CBD7",
"gX c #C8C9C8",
"hX c #CBD9C5",
"jX c #D5DADA",
"kX c #CDD5CF",
"lX c #EAD6D1",
"zX c #D7E4CC",
"xX c #D3E6CE",
"cX c #E2E8DB",
"vX c #E6F4DD",
"bX c #F2E1D6",
"nX c #DCF8FD",
"mX c #D3F1E7",
"MX c #E9EAE4",
"NX c #F6EDEB",
"BX c #EBF7E6",
"VX c #F4FEEC",
"CX c #FDFDEE",
"ZX c #F6F7EA",
"AX c #EBF9FA",
"SX c #F5F5F4",
"DX c #F5FDF4",
"FX c #FBFEF5",
"GX c #F6F5FB",
"HX c #FDF5FE",
"JX c #F4FDFB",
"KX c #FFFFFE",
"LX c #FBF6F4",
"PX c #F7EDF8",
"IX c #DADEE7",
/* pixels */
"pXuX9X9XpXhXvXDXJXDXKXHXHXHXHXHXHXKXJXHXJXFXFXFXCXFXFXFXKXKXKXKXKXKXSXKXSXFXKXKXFXKXKXKXJXKXJXKXKXKXKXKXKXKXKXKXKXKXKXKXKXKXKXKX",
"Z ] ] ] S ] } _.wXFXFXFXKXGXHXKXKXJXKXFXFXBXaXwXiXiXpXhXDXKXJXKXGXKXKXKXKXFXFXLXKXFXKXKXJXKXKXKXKXKXKXKXKXKXKXKXKXKXKXKXKXKXKXKX",
"~.B.~.~.K.E.J.X.C S 8XVXFXFXDXDXDXBXhX9Xo.j S [ j ] [ j  .iXVXVXFXJXKXKXKXKXHXKXKXKXKXKXKXJXKXJXKXKXKXKXKXKXKXKXKXKXKXKXKXKXKXKX",
"C.d.d.C.U.L.M.s.^.X.C f iXCXVXVXiX[.] j { '.!.| !.K.P.`.J.7 } zXFXKXSXKXSXHXKXKXKXKXKXKXKXKXKXKXKXKXKXKXKXKXKXKXKXKXKXKXKXKXKXKX",
"d.j.S.Z.k.g.x.U.x.P (.^.> Q.aX} C I N.E.K.K.M.U.R.Y f.L.B.E.J.6 kXFXFXKXSXKXKXHXKXKXKXKXKXKXFXKXKXKXKXKXKXKXKXKXKXKXKXKXKXKXKXKX",
"p.p.p.p.p.d.d.g.f./.s.m.].H > H N.~.^.T.G.f.x.j.g.R.k.u.M.M.P } o.BXKXFXKXKXHXKXKXKXKXKXKXKXKXKXKXKXKXKXKXKXKXKXKXKXKXKXKXKXKXKX",
"~.A.m.f.R.S.S.m.f.P m.| E.E.w N.~.M.a.d.p.p.p.p.k.l.p.R.f.i.Y.^.j 8XFXVXKXKXHXKXKXHXKXKXKXFXKXFXKXKXKXKXKXKXKXKXKXKXKXKXKXKXKXKX",
"m.C.m.y.B B K y.a.~.B.~.N.N.V., n.M.M.M.j.k.k.p.t.j.j.k.g.f.f.n.o.[ BXFXFXJXKXKXKXHXKXKXKXKXFXFXKXKXKXKXKXKXKXKXKXKXKXKXKXKXKXKX",
"w 8 2 0 w 0 3 0 0 8 w a.E.E.| H H ^.Y.P A.S.p.f.j.g.f.f.s.M.f.| W.] qXFXDXJXDXKXHXKXHXKXHXFXFXFXKXKXKXKXKXKXKXKXKXKXKXKXKXKXKXKX",
"J b.Y./.T.Y.R./.a.a.H < e b.B.b.w G Y./.m.M.Y.U.A.m.M.m.K.Y.~.^.W.o.W.VXVXDXFXKXKXKXHXKXKXFXLXFXKXKXKXKXKXKXKXKXKXKXKXKXKXKXKXKX",
"f.i.i.i.g.i.s.G.T.T.T.H.J 4 n Y m | P Z m 9 , 4 4 4 < 4 9 9 q m I { j vXVXFXDXDXSXKXKXHXKXKXKXFXKXKXKXKXKXKXKXKXKXKXKXKXKXKXKXKX",
"R.G.x.x.U.U.i.i.i.i.i.f.H.T.V 4 # 5 q 9 U N.n.Y.B.K.K.K.K.n.| P q S q | }.hXVXJXFXJXFXKXLXKXKXSXKXKXKXKXKXKXKXKXKXKXKXKXKXKXKXKX",
"i.p.i.i.i.g.G.Y.x.R.T.U.x.x.T.T.Z H E.].J.K.~.n.b.b.n.K.K.L.N.N.^.] W.N.{ j `.xXFXFXZXFXKXGXKXHXKXKXKXKXKXKXKXKXKXKXKXKXKXKXKXKX",
"Z.U.U.Z.M.M.M.M.G.B n H P B n P P 5 q n.K.m.N.n.Y.K.M.K.K.K.K.K.B./.N.J.'.W.{ g 8XVXFXSXKXHXHXKXKXKXKXKXKXKXKXKXKXKXKXKXKXKXKXKX",
"b.B.B.A.B.b.w 5 < G | G q G H H G 9 1 , b.M.m.Y.U.A.a.H B n 3 9 , w , m M C { o.j 8XZXFXKXKXHXKXKXKXKXKXKXKXKXKXKXKXKXKXKXKXKXKX",
"A.~.D.w 2 e K V.b.G w Z L Z Z I | N.~.| 4 L Y.y.0 3 0 B H H P K K G G K L M D A j g aXFXDXJXGXKXKXKXKXKXKXKXKXKXKXKXKXKXKXKXKXKX",
"~.r 2 K A.b.r 8 8 K L G b.] L Z r 5 e Z V.2 2 e G G y.8 w 8 8 m w w 0 n 4 B 1 B J I M 3XFXJXJXHXKXKXKXKXKXKXKXKXKXKXKXKXKXKXKXKX",
", K b.K 8 0 K D.Y.~.B.B./.B.n.^.E.'.] S 5 , e ] w e w | b.M.(.F.^.~.(.a.R.R.G.u.M A D % hXJXKXKXKXKXKXKXKXKXKXKXKXKXKXKXKXKXKXKX",
"V.K q w K K.K.f.i.M.T.i.j.U.H.z.N.J.J.E.^.B.J G n.M.K.L.F.L.^.I | A } } J.A ] I } [ o.7 qXDXGXKXKXKXKXKXKXKXKXKXKXKXKXKXKXKXKXKX",
"8 w H K.K.n.n.T.).F.v.T s.i.B M S [ { X.C D | ^.!.P.!.T | F f X.}.`.o.[ o.9XuX4X3X+. .` _ 5XKXKXKXKXKXKXKXKXKXKXKXKXKXKXKXKXKXKX",
"V Y i.s.H.I.H.X.F D X.o.o.!.|.sXVXDXvXVXcXVX7Xj  .j  .+.7XeXMXLX7X& . . O @ [.GXJXJXjXgX` w.JXLXKXKXKXKXKXKXKXKXKXKXKXKXKXKXKXKX",
"H.L.I.T.| A C [ `.0X[ % O O X % +.cXDXKXFXBXcX .eXhXMXFXFXFXLX .  k  .      + & GXHXKXKXcX5XKXKXKXKXKXKXKXKXKXKXKXKXKXKXKXKXKXKX",
"{ S j [ `.3XaXVXFX& + rX_   + X   % LXZXFXFXrXhXMXFXFXFXSXFX5XX   5XgXX   X X + tXGXHXGXHX5XbXKXKXKXKXKXKXKXKXKXKXKXKXKXKXKXKXKX",
"8XaXBXVXDXJXJXDX_ X + gX` X + @ X   _ KXDXFXtXMXJXJXKXDXKXKX%           4X5X  X & JXKXFXcX4XKXFXKXKXKXKXKXKXKXKXKXKXKXKXKXKXKXKX",
"+.eXJXJXDXBXJXjX  + X X + X fXPX_ X + gXJXkXtXJXJXKXJXJXJXIX+   + k . X kXCX. . . bXVXiX4XZXKXKXKXKXKXKXKXKXKXKXKXKXKXKXKXKXKXKX",
"o.] +.uXDXDXAXrX.   X _ & + <XjX&     +.<X`  .pXcXmXDXJXJXjX@ . . 4XO . o o o . o `.O.& rXFXSXKXKXKXKXKXKXKXKXKXKXKXKXKXKXKXKXKX",
"T H.F.f { 7XhX0X. . X @.7 X . . . o # j Q.X.C A A } W.].|.!.o . . o o $ O > g C X.g [ O.cXFXHXKXKXKXKXKXKXKXKXKXKXKXKXKXKXKXKXKX",
"d 1 3 Y K.A I S % % $ * % % j j I F.].T.i.1 n T.G.x.Y M V P T F.D Q.Q.J.P.(.P.!.o.X.iXVXVXFXJXKXKXKXKXKXKXKXKXKXKXKXKXKXKXKXKXKX",
"L.T.n.n 9 M | U K.N.E.| F.F.H.G.P P M 1 9 s./.f.i.U.Y.U.T.K.K.K.(.U E.L.P.!.| `.5 eXVXFXJXKXKXKXKXKXKXKXKXKXKXKXKXKXKXKXKXKXKXKX",
"s.f.s.M.M.K G w < 9 n 0 3 d < 4 m 9 L B.(.n.d.b.M.s.u.u.i.s.G.f.a.U.P K.W.W.Q.6 8XFXFXZXKXGXHXKXKXKXKXKXKXKXKXKXKXKXKXKXKXKXKXKX",
"g.k.j.j.M.M.A./.B./.B.b.m.T.R.A.q K /.m.b.d.Y.M.Z.Z.j.U.A.Y.f.i.t.R.R.P ~.| j pXJXJXJXHXKXHXKXKXKXKXKXKXKXKXKXKXKXKXKXKXKXKXKXKX",
"g.k.k.i.s.R.a.b.B.b.D.B./.K w 2 G K Z.A.C.Z.Z.y.4 y.f.A.f.A.n.U.j.t.J P Z [.VXDXJXGXKXKXPXKXKXHXKXKXKXKXKXKXKXKXKXKXKXKXKXKXKXKX",
"x.x.x.x.x.G.M.M.Z.Y.A.J 2 2 G A.d.h.h.h.h.h.Z.C.y.w 2 2 e r w 4 3 d n < S VXVXJXHXKXHXHXHXHXHXKXKXKXKXKXKXKXKXKXKXKXKXKXKXKXKXKX",
"f.x.x.s.f.s.G.m.K w 2 0 y.~.A.d.h.h.k.d.d.j.d.m.h.A.b.m 2 8 L m.z.G.b.(.| 6 VXDXHXHXHXHXHXKXFXFXKXKXKXKXKXKXKXKXKXKXKXKXKXKXKXKX",
"h.j.h.h.Z.d.f.Z.0 J u.n.M.B.Y.Y.f.f.x.x.M.x.x.F.G.Y.H.n.a.Y F.L.a.Y.A.D.'.r _.VXJXSXKXKXGXJXJXJXJXKXKXKXKXKXKXKXKXKXKXKXKXKXKXKX",
"h.h.h.h.m.C.Z.m.Z.Z.Y.K.M.M.M.G.x.x.x.x.G.x.G.x.F.n.s.K.).(.L.| m.U.y.C.D.'.6 [.DXJXKXJXJXJXJXJXKXKXKXKXKXKXKXKXKXKXKXKXKXKXKXKX",
"h.j.m.j.m.f.M.f.U.M.i.n.G.L.G.s.f.f.f.f.m.j.f.m.x.m.f.M.M.M.M.M.Y.s.A.S.m.D.W.7 aXJXFXHXKXJXKXJXKXKXKXKXKXKXKXKXKXKXKXKXKXKXKXKX",
"s.G.G.M.G.s.x.G.i.f.U.G.s.g.M.U.f.h.Z.h.f.j.d.Z.Z.Z.m.f.a.p.M.M.i.i.R.u.A.b.N.N.`.DXKXKXHXHXKXHXKXKXKXKXKXKXKXKXKXKXKXKXKXKXKXKX",
"x.F.x.F.x.G.x.f.U.f.d.f.Z.Z.d.p.j.f.f.m.M.f.f.m.M.g.g.M.R.A.M.s.L.z.T v.f.J Y.N.S zXFXKXKXHXHXHXKXKXKXKXKXKXKXKXKXKXKXKXKXKXKXKX",
"G.x.G.x.G.M.x.f.f.f.Z.h.d.p.h.h.m.M.m.f.M.f.M.f.f.j.f.G.f.g.s.j.s.i.R.u.j.U.K.E.D iXVXFXHXHXHXHXKXKXKXKXKXKXKXKXKXKXKXKXKXKXKXKX",
"f.M.U.A.Z.x.U.f.g.f.g.i.s.U.G.U.Z.m.m.Z.m.Z.f.m.f.f.j.f.d.j.d.d.C.C.h.p.k.f.x.P.D 0XBXFXKXSXHXHXKXKXKXKXKXKXKXKXKXKXKXKXKXKXKXKX",
"u < < u d N T z.H.R.L.T.U.x.f.i.M.f.m.f.M.M.m.Z.C.f.m.Z.h.Z.Z.m.C.C.h.C.v.I.I.I.F k zXFXHXKXGXKXKXKXKXKXKXKXKXKXKXKXKXKXKXKXKXKX",
":.4.2.,.x z a p i u M N T G.T./.M.G.M.Z.M.G.f.m.m.s.m.f.d.d.d.p.y.C.A.H.E W z k l ' ' LXNXKXJXKXKXKXKXKXKXKXKXKXKXKXKXKXKXKXKXKX",
"1.<.<.e.5.5.4.4.2.v z h i p p u F T E E c.P.H.I.).).I.L.I.L.L.H.M.u.N i t s x ;.w.' ' lXKXGXKXJXKXKXKXKXKXKXKXKXKXKXKXKXKXKXKXKX",
"=.=.=.=.>.:.5.e.<.8.0.8.0.:.>.,.a i t t t t z t z z z z z h a h p i z v 2.3.r.r.w.7.7.HXHXKXHXJXKXKXKXKXKXKXKXKXKXKXKXKXKXKXKXKX",
"= = = #.&.#.#.&.>.>.<.9.8.9.9.8.r.q.q.4.2.;.;.,.x x x x v v v v 2.q.:.:.3.<.r.w.c ' bXNXKXKXSXKXKXKXKXKXKXKXKXKXKXKXKXKXKXKXKXKX",
"6.5.r.<.<.>.=.*.= - - - %.-.=.>.4.:.3.3.0.3.q.r.0.q.q.0.q.r.8.0.0.8.r.8.:.-.b k 6XLXLXKXJXKXKXKXKXKXKXKXKXKXKXKXKXKXKXKXKXKXKXKX",
"3.3.4.4.4.3.0.q.0.0.:.;.-.*.b = = = = = &.#.x *.*.-.*.-.%.x x #.#.$.$.= = - c c HXKXFXJXKXDXKXKXKXKXKXKXKXKXKXKXKXKXKXKXKXKXKXKX",
"t l z x v v w.q.q.0.8.8.8.8.9.8.:.>.>.=.*.*.*.*.*.-.%.7.-.=.=.=.1.1.1.=.r.w.w.; lXNXFXFXJXFXFXKXKXKXKXKXKXKXKXKXKXKXKXKXKXKXKXKX",
"E E R F z h i y c v ;.0.0.e.e.8.0.0.0.3.5.5.5.5.r.r.8.8.e.<.>.<.&.6.<.e.7.w.w.b bXLXKXKXFXKXKXJXKXKXKXKXKXKXKXKXKXKXKXKXKXKXKXKX",
"K.K.K.L.I.P.X.X.z F l i y t z x ,.>.,.>.4.>.3.1.=.<.9.8.5.r.r.0.r.<.0.0.w.7.: yXZXLXKXFXKXKXKXKXKXKXKXKXKXKXKXKXKXKXKXKXKXKXKXKX",
"p.a.M.M.G.v.H.K.L.H.P.E E R R F i a s a s a a a s a a x s ; a ;.;.a ' c b ' sXLXFXLXHXKXKXKXKXKXKXKXKXKXKXKXKXKXKXKXKXKXKXKXKXKX",
"A.j.C.j.j.k.d.k.g.k.x.x.v.k.g.i.G.G.K.x.z.i.z.t.V V N M V N T F k b qXsXbXFXFXKXKXKXKXKXKXHXKXKXKXKXKXKXKXKXKXKXKXKXKXKXKXKXKXKX",
"p.p.p.p.p.p.k.k.j.j.k.p.k.j.R.R.C.C.C.C.h.h.p.h.k.j.S.M.~./.V.] [ CXCXFXFXKXFXKXKXKXKXHXKXHXHXKXKXKXKXKXKXKXKXKXKXKXKXKXKXKXKXKX",
"Z.Y.M.M.Z.m.f.f.p.d.m.U.S.m.y.y.k.d.f.m.C.m.M.Z.R.t.P ~.E.] ..<XFXFXZXFXDXKXJXKXJXKXKXKXKXKXKXHXKXKXKXKXKXKXKXKXKXKXKXKXKXKXKXKX",
"D.m.M.M.m.m.Z.m.A.M.d.m.m.C.A.R.x.f.Z.f.M.m.n.M.f.^.W.| j `.gXJXFXFXKXDXKXJXKXJXKXKXKXHXHXKXKXKXKXKXKXKXKXKXKXKXKXKXKXKXKXKXKXKX",
"M.m.C.m.m.d.g.d.d.d.d.d.m.M.m.M.Y.V f.U.u.f.~.~.Q.S _ +.gXFXKXLXFXKXKXKXKXKXJXKXKXKXKXKXKXKXFXKXKXKXKXKXKXKXKXKXKXKXKXKXKXKXKXKX",
"A.A.A.A.A.U.A.Z.U.U.U.U.U.G.K.F.M.R.T.G.T.(...6 6 <XxXSXKXFXNXFXKXKXKXKXKXKXKXKXKXKXKXFXKXFXKXKXKXKXKXKXKXKXKXKXKXKXKXKXKXKXKXKX",
"m G G H J P P a.s.Y Y E F.| X.Y y.L K ) 6 * ..mXAXJXAXKXKXNXKXLXKXKXKXKXKXKXKXKXKXKXFXKXFXFXKXFXKXKXKXKXKXKXKXKXKXKXKXKXKXKXKXKX",
"L Z S r m w q w 5 < 5 f f M j 5 r ) ) ) ( ^ +XfXnXAXJXDXNXKXHXHXHXFXHXKXKXFXKXKXFXKXKXFXKXKXFXKXKXKXKXKXKXKXKXKXKXKXKXKXKXKXKXKX",
"{._._.{.{.Q._./.'.'.'./._._._._.{.+X+XXX.XOX.X X2XnXnXAXJXFXHXHXKXKXKXKXKXKXFXKXKXKXKXKXKXKXKXKXKXKXKXKXKXKXKXKXKXKXKXKXKXKXKXKX",
"! ! ~ ^ / / / / / / ^ / / ( ^ ^ ^ ^ OX%X=X>X=X*X.X^ dXAXAXGXKXKXKXKXKXKXKXKXKXKXKXKXKXKXKXKXKXKXKXKXKXKXKXKXKXKXKXKXKXKXKXKXKXKX",
"*X*X*X%XoX.XoXoXoXoX%X%X%X%X%X%X&X=X=X>X#X;X$X$X=X,X X@XnXAXDXFXJXKXJXKXJXKXKXKXKXKXKXKXKXKXKXKXKXKXKXKXKXKXKXKXKXKXKXKXKXKXKXKX",
"$X$X;X;X:X:X:X:X>X:X:X-X-X-X-X-X-X-X-X-X;X;X#X;X$X=X,X X@XAXFXBXKXJXKXJXKXKXKXKXKXKXKXKXKXHXHXKXKXKXKXKXKXKXKXKXKXKXKXKXKXKXKXKX"
};
