/* XPM */
static const char *Q3RaZmRhM1djQUF4b0hY[] = {
/* columns rows colors chars-per-pixel */
"64 64 255 2 ",
"   c #030A00",
".  c #10180D",
"X  c #172C13",
"o  c #293B18",
"O  c #00163E",
"+  c #000C3D",
"@  c #092D36",
"#  c #2D3428",
"$  c #490800",
"%  c #550900",
"&  c #411200",
"*  c #670602",
"=  c #770E09",
"-  c #6A3615",
";  c #77341A",
":  c #672B0C",
">  c #563726",
",  c #793A23",
"<  c #553716",
"1  c #17440B",
"2  c #2B5A17",
"3  c #35591A",
"4  c #2B4519",
"5  c #35621B",
"6  c #2E6116",
"7  c #2A4922",
"8  c #374C2A",
"9  c #39562A",
"0  c #3B5735",
"q  c #354E35",
"w  c #396626",
"e  c #3D752A",
"r  c #1C4032",
"t  c #4A4916",
"y  c #584819",
"u  c #4D5318",
"i  c #6A4519",
"p  c #584826",
"a  c #455828",
"s  c #565925",
"d  c #435D34",
"f  c #445937",
"g  c #51573B",
"h  c #404B3B",
"j  c #684C23",
"k  c #7B4729",
"l  c #685526",
"z  c #7B5A36",
"x  c #734D30",
"c  c #44692A",
"v  c #46762C",
"b  c #446333",
"n  c #446339",
"m  c #4C6C3D",
"M  c #496836",
"N  c #516C3D",
"B  c #596833",
"V  c #4C7B32",
"C  c #4B7637",
"Z  c #53733E",
"A  c #577A39",
"S  c #5A642B",
"D  c #66793A",
"F  c #6B6533",
"G  c #001746",
"H  c #001556",
"J  c #0B2B4D",
"K  c #011269",
"L  c #000C7A",
"P  c #00127A",
"I  c #062A6E",
"U  c #243C6A",
"Y  c #35554B",
"T  c #3C6454",
"R  c #2C4D70",
"E  c #3C686B",
"W  c #1D4D51",
"Q  c #4A5A46",
"!  c #555953",
"~  c #6E5945",
"^  c #496746",
"/  c #556A47",
"(  c #5C7B45",
")  c #5C7B4B",
"_  c #557647",
"`  c #5C6B57",
"'  c #5A7555",
"]  c #49724E",
"[  c #696948",
"{  c #657A46",
"}  c #677857",
"|  c #6D7457",
" . c #4E7070",
".. c #6A7965",
"X. c #6C716D",
"o. c #585862",
"O. c #83371F",
"+. c #86472B",
"@. c #885938",
"#. c #955A3B",
"$. c #8A4E33",
"%. c #85643B",
"&. c #94633E",
"*. c #A3573F",
"=. c #975E43",
"-. c #8E6343",
";. c #986848",
":. c #966B55",
">. c #9A7351",
",. c #A4694A",
"<. c #A56A52",
"1. c #AB6E4F",
"2. c #8B746E",
"3. c #A05E46",
"4. c #4D8334",
"5. c #4C8937",
"6. c #538435",
"7. c #548A36",
"8. c #5A8B34",
"9. c #54843B",
"0. c #5B853D",
"q. c #558B3C",
"w. c #5B8C3D",
"e. c #54913D",
"r. c #5B913D",
"t. c #5B9237",
"y. c #518A30",
"u. c #628C3D",
"i. c #64833E",
"p. c #61933D",
"a. c #5B8544",
"s. c #568B42",
"d. c #5C8C42",
"f. c #5D8C4A",
"g. c #588448",
"h. c #559341",
"j. c #5C9243",
"k. c #5C9449",
"l. c #5C8656",
"z. c #57904B",
"x. c #628543",
"c. c #628C44",
"v. c #62844B",
"b. c #648C4B",
"n. c #6B8C4C",
"m. c #6B8748",
"M. c #76884B",
"N. c #629244",
"B. c #64924B",
"V. c #6A924C",
"C. c #65994B",
"Z. c #648453",
"A. c #648C53",
"S. c #6A8D54",
"D. c #6A835B",
"F. c #6C8C5A",
"G. c #668759",
"H. c #74885A",
"J. c #659351",
"K. c #699253",
"L. c #6C925A",
"P. c #679858",
"I. c #739458",
"U. c #588467",
"Y. c #6C8564",
"T. c #76896A",
"R. c #769667",
"E. c #7C9772",
"W. c #748D6E",
"Q. c #76A664",
"!. c #6CA857",
"~. c #859A7B",
"^. c #878C7A",
"/. c #88A478",
"(. c #90AE78",
"). c #001789",
"_. c #011996",
"`. c #0E2C8C",
"'. c #021BAB",
"]. c #0925A8",
"[. c #0B25BA",
"{. c #1530A5",
"}. c #051EC8",
"|. c #0C27D8",
" X c #0E28CC",
".X c #011EEE",
"XX c #041DF8",
"oX c #0527EA",
"OX c #0226F4",
"+X c #0029F2",
"@X c #0125FE",
"#X c #0028FC",
"$X c #0A27F6",
"%X c #142EEE",
"&X c #74908A",
"*X c #6A85B4",
"=X c #899B83",
"-X c #8F9287",
";X c #96A78B",
":X c #9CB28D",
">X c #95A691",
",X c #A7B49A",
"<X c #A2B393",
"1X c #A5AEA4",
"2X c #AABAA3",
"3X c #B5B8B6",
"4X c #B0B8AF",
"5X c #D6B9BB",
"6X c #A8D097",
"7X c #ADC8A9",
"8X c #B5C5AD",
"9X c #B9CBB3",
"0X c #BBD0B1",
"qX c #A8D993",
"wX c #C6C8BD",
"eX c #C8D6BB",
"rX c #C6FCB1",
"tX c #B9C5D3",
"yX c #C9CAC7",
"uX c #C8D8C4",
"iX c #D6D7CA",
"pX c #D6D8D7",
"aX c #CDDAD0",
"sX c #CBE2C8",
"dX c #D4E5CC",
"fX c #DBE6D7",
"gX c #DBF1D6",
"hX c #E2E9DB",
"jX c #E6F3DC",
"kX c #E7EBE8",
"lX c #EDF4ED",
"zX c #EDFCEB",
"xX c #E9F6E4",
"cX c #F2F6ED",
"vX c #F4FEED",
"bX c #FBFEEE",
"nX c #F2FBE5",
"mX c #EDF9F8",
"MX c #F3F4F3",
"NX c #F5FDF4",
"BX c #FBFDF5",
"VX c #F4F4FA",
"CX c #FDF5FD",
"ZX c #F6FDFC",
"AX c #FEFAFF",
"SX c #FAFEFF",
"DX c #FFFFFD",
"FX c #FFFDFF",
"GX c #FFFEFF",
"HX c #FEFFFF",
"JX c #FDFEFE",
"KX c #FEFEFD",
"LX c #FCF6F5",
"PX c #EEEBF3",
"IX c #E3DFE0",
/* pixels */
"SXSXDXDXDXDXDXDXDXDXDXSXDXBXBXBXDXAXAXAXAXAXDXDXDXSXDXAXDXDXCXDXAXDXDXDXAXLXDXVXDXDXDXSXDXSXAXDXSXSXZXSXDXSXBXDXBXBXBXDXDXAXDXDX",
"SXSXDXDXDXDXDXDXAXDXDXDXDXDXBXDXAXDXAXCXDXDXSXDXDXDXDXDXMXDXDXVXDXDXSXVXAXDXLXDXDXDXSXZXDXDXVXkXPXSXDXZXVXDXDXDXBXBXBXDXDXDXDXAX",
"SXDXDXDXDXDXDXDXDXDXSXDXDXDXDXDXDXDXDXDXDXDXDXBXMXDXlXDXDXVXAXDXNXDXDXDXDXDXLXDXDXDXDXSXDXDXDXAXDXSXDXDXDXDXDXVXDXDXDXBXDXDXDXAX",
"DXDXDXDXDXDXDXDXDXDXDXDXDXSXSXDXSXDXDXMXDXDXNXNXNXSXNXNXDXDXMXDXSXBXDXBXDXMXDXZXZXDXDXDXDXkXiXiXyXwXyXaXpXVXDXDXDXDXDXDXDXDXDXDX",
"DXDXDXDXDXDXDXDXZXSXDXDXSXSXDXDXSXvXBXBXzXNXBXvXNXxXxXlXkXSXSXSXNXMXDXBXDXDXDXDXDXDXDXSXPXhXhXcXBXbXBXDXMXVXDXDXSXZXSXDXDXBXBXDX",
"DXDXDXDXDXDXDXDXDXSXBXBXDXDXSXVXSXvXNXvXxXfXdXuX,X........X.W.1XlXDXMXDXZXMXZXSXZXSXSXSXDXDXBXBXjXeXeXxXDXDXSXSXDXDXSXDXDXDXBXDX",
"DXDXDXDXDXDXDXDXBXBXBXvXNXSXDXZXNXxX>X} ..Q 8 ` ` Q Q # X   . X o.o.3XmXSXSXSXlXZXZXZXSXNXaX;X} f a a ` ;XaXzXNXNXSXSXBXBXDXDXDX",
"DXDXDXDXDXSXSXBXvXbXnX9X-XX.X.X.` q Q ..` ` ..Q ! .       # 3XDX3X. wX>X=X2XW.` / } ....` ^ ^ Z.v.S.S._ d 8 / W.9XhXBXBXBXDXDXDX",
"AXDXDXDXSXNXNXjXeX,X| g ..` q #   . Q X . # h uXNXhX-X# . . ! o.X.PXSXT.~.9 Z Z.{ Z.( ( _ L.f.a.a.9.b.b.K.A.Z.M d 9 T.hXBXSXSXDX",
"CXDXDXSXNXuXT.8 o a | | # .       1XwX# X.fXX.-XBXSXSXBXlXpXyXkXAXDXfX,XH.m.c.u.m.A n.S.b.J.v q.j.w.7.q.s.B.B.b.n.Z.d 8 dXDXDXDX",
"AXLXBXNX=X8 ^ b } T.| g <X| X     # ! 4XDXDXlX>X-XBXDXDXDXDXDXAXCXCXSXnXZ A 0.u.A A A A g.C w q.q.j.5.e.q.j.7.N.c.c.v.D.h xXSXSX",
"DXDXNX} 9 G.b Z.H.{ ` jXbXbXvXiXiXIXAXDXZXDXBXDX-XyXDXMXMXDXCXDXAXDXSXdX3 b.b.0.c I.Z m ( g.C J.q.e.q.j.e.e.y.7.6.c.n.S._ f BXNX",
"MXBX~.d L.w a.A.) / nXBXBXcXvXBXDXAXAXDXAXMXDXMXyX3XDXDXDXDXMXDXAXDXzXW.9 g.L.m /.vXvXvXvXdX) S.0.4.q.w.j.q.j.j.j.9.0.A F./ Y.vX",
"DX4X7 R.V 4.C.b.m 9XDXMXZXDXDXMXDXDXDXDXDXDXDXDXpXyXZXMXDXZXDXDXDXSXgX' n ( G.' =XzXBXDXBXuXn S.C V d.d.b.4.0.d.9.d.d.b.b.L.b <X",
"BX} Z.a.C.4.w.a._ zXVXDXCXDXMXDXDXAXDXDXZXDXlXDXaX3XDXDXDXDXVXDXBXeX} n 1 L._ ] 1XcXDXBXBX;X/ H.3 0.c.b.b.c 2 e V C.d.v B.0.a.v ",
"uXd F.A w.r.d.C E.BXSXAXDXDXDXDXDXDXDXDXDXDXDXDX4XfXSXBXSXBXDXdX/.N / _ b g.L./ uXDXDXAXbX[ } { 3 n.m.a.v.w X w a.0.0.N.w.w.c.A ",
"(.N n.x.b.n.( 0 jXvXSXDXDXDXDXDXDXZXDXDXZXBXDXfX^.BXvXvXsX:XT._ C w ) _ F.A n.) xXSXVXDX2XM R.M w b.c.9.3 K.M c b.d.t.4.p.j.g.A.",
"V.C n.A L.v./ 7XeX8XwXkXDXDXSXDXMXDXDXSXDXSXfX..X =XeXT._ Z M C v f.^ ~./.v.A I.NXZXSXMX} ( b.c w B.w.9.v b.( 1 A.d.p.t.8.6.B.g.",
"A C c.b.g.g.E.E.9 / ' ..>XfXBXBXBXBXvXNXzX>X` / ^ E.6X_ A.S.S.C 0.I.0 gX~.{ b.Z.gX4X1X=XZ m.B.w v N.w.6.v g.G._ _ A.6.p.8.6.k.d.",
"2 b.a.b.f.g./.L.l.^ b n d n D.;X8X0X0X;X} ^ n 7 G.F.L._ a.a.C.c.I.8 1XSXT.M n.C q 0 Q 4 x.x.c.1 6.p.u.V A R.] 7XW.m K.6.p.t.7.j.",
"w f.s.a.J.C Q.:XC g.g.M c M M b M _ M 9 n _ b w L._ J.f.0.j.q.K.n W.DXDXT./ I.9.L.L.G.9 n.c.g.2 7.p.w.2 w D.^ sXsX0 L.9.N.r.7.q.",
"C s.s.B.s.s.qXQ.s.f.B.d.0.A v 5 c 9 M Z Z L.g.w K.a.0.9.N.j.7.2 ~.NXDXMXiX4 Z b.C m 9 A V.b._ w q.N.c.C R.^ ` ZXNX;X0 S.d.w.w.7.",
"2 J.k.s.d.d.rXP.9.q.s.w.w.w.N.B.a.b.b.B.B.9.6 V q.s.v e 4.v r.5 ) dXBXDXbX2X/ d _ E.G.b m.K.l.9 J.A S.N f W.lXZXZXzX' ) v.d.s.r.",
"B.9.s.q.s.j.rX!.q.w.w.7.7.r.r.6.d.c.0.d.d.V 6 N.j.q.N.j.7.7.7.C.A 9 ;XvXBXBXnXxXNXzXjXo H.F.0 7 L.S.N T.dXBXDXSXSXNXfX0 Z.S.f.a.",
"s.s.s.s.s.s.s.s.j.j.q.q.w.d.w.w.w.0.d.c.V w V j.w.q.q.w.w.s.w.w.j.B.d / bXbXDXBXSXDXcX;X8 f ..' 8 f 2XvXBXDXBXDXDXSXBXdXf _ F.A.",
"w.w.w.w.w.s.s.s.6.q.j.j.d.d.d.d.c.N.V.6.5 v N.d.7.q.d.d.d.w.w.w.5.q.I.{ g -XkXAXCXCXAXBXhXfXNXZXeXaXZXcXfXLXDXBXDXAXBXNXgX..0 Z.",
"w.w.w.w.w.w.s.s.N.d.q.0.a.a.a.d.B.9.5 6 V N.j.d.N.d.w.0.d.c.c.d.j.6.m.{ p ~ 2.CXAXCXAXAXAXZXZXmXkXpXpXaXpXDXDXDXAXDXDXDXSXxX8Xo ",
"w.w.w.w.w.w.s.s.q.q.d.B.J.J.b.a.c 2 c c.j.w.d.9.w.w.d.c.c.c.a.0.d.V.M.t F ~ 2.AXCXAXAXCXCXDXDXSXSXZXSXCXAXDXLXDXLXLXAXDXMXBXvX~.",
"w.w.w.w.w.w.w.w.q.j.B.0.v 5 3 5 w 0.c.d.B.w.6.N.q.s.d.d.0.0.c.n.M.D t l >.> 5XCXCXAXAXAXDXDXNXSXNXDXDXAXDXDXDXDXDXDXDXSXDXBXeXg ",
"w.w.w.w.w.w.w.w.d.d.d.9.V V 9.c.V.c.d.9.6.j.C.7.j.s.q.0.c.b.b.m.B y z &.@.< 2.CXAXCXSXDXDXDXBXDXDXDXAXCXDXDXDXBXDXZXVXDXSXBX,X/ ",
"w.w.w.w.w.r.w.w.j.s.w.d.c.c.d.w.9.c.d.s.C.s.4.w.q.7.w.c.V.c.A S p :.#.: i >.p wXDXSXZXZXDXDXDXDXBXDXDXDXDXMXBXDXBXDXSXDXNXBX| [ ",
"w.w.w.w.w.r.r.r.w.r.j.w.w.w.d.d.d.d.w.9.s.s.d.c.c.m.m.D s u s F :.k - $.&.>.p iXDXNXSXSXDXBXDXDXBXBXZXDXDXDXDXBXDXVXDXSXSXdXM M.",
"w.c.w.w.7.N.q.j.h.q.s.j.j.s.s.d.d.d.w.s.d.c.c.m.B s y j @.-.&.@.- +.;.-.:.j 2.BXDXDXDXDXDXDXDXDXDXDXDXDXDXDXDXDXDXDXDXZXZX;XN c.",
"u.w.r.j.7.q.q.s.s.s.d.d.d.s.s.j.d.c.c.m.D B s y j @.;.,.#.+.O.; #.&.;.z > 2.BXDXDXDXDXDXDXDXDXDXDXDXDXDXDXDXDXDXDXDXDXZXzXD.A u.",
"r.q.e.e.h.h.k.d.B.n.m.n.n.V.b.a.b.i.B s y j @.;.;.@.k - - +.#.,.;.l y p [ BXDXAXDXDXDXDXDXDXDXDXDXDXDXDXDXDXDXDXDXZXDXZXdXd b.w.",
"q.e.e.5.j.d.x.B a s t t s s s a t t p z ;.,.#.+.; ; +.&.>.>.@.j y p [ | ^.BXcXDXDXDXDXDXDXDXDXDXDXDXDXDXDXDXDXDXDXVXSXSX2Xb V.0.",
"5.j.d.i.M.S l l z z z z @.%.%.@.;.<.<.#.k ; , +.*.1.1.&.j t u B { H.} / -XBXSXSXSXDXDXDXDXDXDXDXDXDXDXDXDXDXDXDXDXDXZXZXY.) c.w.",
"e.j.w.m.D j z -.3.$., ; , , k +., ; ; ; $.#.,.,.;.$.- y s D V.K.Z.G.D.Q NXZXZXSXSXDXDXDXDXDXDXDXDXDXDXDXDXDXDXDXDXDXDXhX^ F.9.N.",
"j.q.0.m.s l >.#.* * * * % $ & & k $.3.,.,.#.k j t s B x.c.d.d.g.l._ 0 9XxXZXSXSXDXDXDXDXDXDXDXDXDXDXDXDXDXDXDXDXDXDXSX8Xd F.9.j.",
"q.w.n.M.t z ;.% * = = = % % , >.>.-.@.i i y l S i.c.j.j.q.q.d.J.n 7 9XNXZXZXSXSXDXDXDXDXDXDXDXDXDXDXDXDXDXDXDXDXDXcXBX=X/ S.d.w.",
"q.N.x.M.y z ;., $ % % $ : #.<.-.y u s B x.n.N.w.7.N.q.d.c.d.V.v.d gXNXZXSXSXDXAXDXDXDXDXDXDXDXDXDXDXDXDXDXDXDXDXDXBXbX} ) b.d.w.",
"j.7.c.D S j >.-.+., , @.>.-.x < B D c.c.q.5.e.h.e.q.9.a.x.( I.M ;XvXNXNXDXDXDXCXDXDXDXDXDXDXDXDXDXDXDXDXDXDXDXDXDXvXjXN v.d.d.j.",
"h.4.d.V.M.t z -.<.<.<.@.j t B m.b.d.s.h.h.e.e.5.h.q.N.a.I.M M / jXDXBXZXDXDXAXAXAXDXDXDXDXDXDXDXDXDXDXDXDXDXDXDXDXvXeXa K.0.s.h.",
"5.!.5.V n.D s j x x j p s { b.s.s.s.q.e.e.e.e.e.q.d.a.A.N 8 :XvXBXDXDXDXDXDXCXAXDXDXDXDXDXDXDXDXDXDXDXDXDXDXDXDXZXBX:Xc V.0.q.q.",
"h.q.q.s.2 A b.c c c M x.m.c.w.d.s.s.q.w.w.w.w.d.B.v S.F.n sXNXNXBXBXDXDXDXAXAXDXDXDXDXDXDXDXDXDXDXDXDXDXDXDXDXDXZXBXH.A c.w.q.q.",
"r.7.w.C.4.w e z.z.s.9.j.N.0.0.N.j.s.w.w.c.c.c.a.a.m G.4 0XBXcXSXDXZXDXDXDXDXDXDXDXDXDXDXDXDXDXDXDXDXDXDXDXDXDXDXDXxXN n.0.w.j.h.",
"w.0.j.w.B.a.V w c A a.c.u.w.w.q.4.d.B.j.0.9.d.S.c b 9 2XBXAXDXDXDXDXSXZXSXZXSXZXSXDXDXDXDXDXDXDXDXDXDXDXDXDXDXDXDX8XM n.8.w.h.q.",
"8.w.N.0.9.c.b.b.m.c.x.0.w.r.r.w.u.w.0.d.k.B.l.' X &XzXBXDXAXAXCXAXDXDXZXSXZXSXZXSXSXDXDXDXDXDXDXDXDXDXDXDXDXDXDXNX=XN c.N.w.q.V ",
"8.t.8.w.w.w.s.d.d.d.0.w.w.w.w.0.8.u.u.0.B.L.T @ G *XmXZXDXCXCXAXDXDXDXBXDXDXZXSXSXSXDXBXDXDXDXDXDXDXDXDXAXCXAXDXzX0 l.a.d.d.b.c ",
"7.7.8.w.r.r.r.r.7.s.N.N.N.d.d.c.V.b.A.l.T @ G K {.P R tXZXDXAXCXVXDXBXBXDXSXDXDXDXDXBXBXDXDXDXDXDXSXAXAXCXAXDXvX0XM f.f.s.b.( Z.",
"B.c.c.w.0.8.8.8.w.8.6.0.a.b.f.) ] Y @ J H L '.%X|. X_.K &XvXDXAXDXAXZXDXMXDXDXVXDXDXDXDXDXDXDXDXDXDXAXAXCXAXDXvXT._ f.B.g.K.N <X",
"a.a.0.0.w.w.u.N.c.b.G.Y.U.] r @ O H H K ].|.$XXX$X%X|.].+  .fXSXNXDXDXMXDXAXCXDXDXDXDXDXDXDXDXDXSXDXAXAXAXCXBXjXM a.s.B.a.A./ gX",
"b.n.V.V.V.B.b.A.' ' T U J H H K _.'.'. X|.oXOXOX.XOX$X}.{.U T 8XSXSXSXDXSXDXDXDXDXDXDXDXDXDXDXDXZXDXDXCXAXCXBX,XM c.w.w.b.( D.vX",
"^ ] ] ] ^ Y q W @ G H K L _.'.[.|.oX$X$X$XOXOX+X#X.X$XXX X`. .Y >XNXmXSXSXSXDXBXDXDXDXDXDXDXDXDXDXSXDXAXCXDXBX} ( N.w.7.B.m ;XNX",
"O O G G G G G H H P ).'. X%X%X$X$X$X@XXX.X+XoXoXOX#XXX@X$X[.J &XQ } NXNXSXDXBXDXDXDXAXDXDXDXDXDXDXSXDXDXAXDXeXM b.w.t.7.b.^ uXZX",
"L P P P P ).)._.].[. X|.oXXXXX@XOXOX@X@X#X#X+X+XOX@XXXXX@X|.`.R &Xm ' jXSXNXDXBXDXDXAXDXDXDXDXDXZXDXSXDXDXNX~.N N.y.t.w.v./ lXSX",
"|.|.|.|.|.|.|.|.oXoXoXOXOX@X@X@X@XOXOXOX@X@X@X@X@X@X@X@X@X$X XI  .R._ / jXNXBXBXDXDXAXAXDXBXDXDXDXSXVXDXSXfX^ b.w.8.8.u.( Y.ZXSX",
"$X$X$X$X$XOX$X$XOX@X@X@X@X@X@X@X@XOX+XOX@X@X@X@X@X@X@X@X@X$XoX].R l.G.( 8 dXbXvXMXDXVXDXDXDXDXDXZXDXDXMXSX~._ b.8.8.8.c.Z =XSXSX",
"OXOXOXOX@X@X@X@X@X@X@X@X@X@X#X@X@X@XOXOX@X@X@X@XOX#X@X@XOX#X$X XJ U.A.a.l.d 0XbXvXDXDXPXDXBXDXDXBXDXDXNXuXd v.c.w.8.w.c.b 9XSXSX",
"OXOX@X@X@X@X@X@X@X@X#X#X@X@X#X#X@X@X@XOX@X@X@X@XOX#X#X@XOXOX@X|.I E l.s.J.Z.8 :XvXNXSXDXZXDXDXDXDXDXlXBXY.m K.w.w.0.c.b.n jXDXAX",
"OXOX@X@X@X@X#X@X@X@X@X#X#X#X#X#X@X@X@X@XOXOXOX@XOX#X#X@XOXOXOX|.{.I U.C.V B.G.0 R.nXZXSXDXBXBXDXDXDXvXeX0 A.d.7.w.w.b.) / BXDXDX",
"@XOX@X@X@X@X#X#X@X@X@XOXOX#X#X#X@X@X@X@XOX+XOX@X@X@X#X#X+XOXOXoX}.`. .s.j.N.a.L.c ( xXZXNXDXDXAXDXBXBXY.Z b.w.w.w.q.A._ E.BXDXDX",
"@X@X@X@X@X@X@X@X@X@X@X@X@X@X@X@X@X@X@X@XOXOXOX@X@X@X+X+X+XOX@X@X%X_.E s.q.r.d.0.V.M / aXNXDXDXDXDXBXhXd S.d.w.w.s.s.A.m 2XBXDXDX",
"@X@X@X@X@X@X@X@X@X@X@X@X@X@X@X@X@X@X@X@XOXOXOX@X@X@X+XoX+X#X@X@XXX].W P.q.q.j.s.u.V.' q 1XSXZXDXDXBX,Xd S.w.w.7.j.a.G.n sXBXDXDX"
};
