/* XPM */
static const char *MTc2OA__[] = {
/* columns rows colors chars-per-pixel */
"64 64 256 2 ",
"   c #010301",
".  c #070E04",
"X  c #0C1505",
"o  c #111311",
"O  c #162C0C",
"+  c #2B3715",
"@  c #121C2D",
"#  c #19332E",
"$  c #2D322C",
"%  c #503613",
"&  c #68381B",
"*  c #6F341A",
"=  c #693627",
"-  c #54372E",
";  c #2A4815",
":  c #344C1A",
">  c #34551A",
",  c #31480E",
"<  c #364826",
"1  c #3C5628",
"2  c #3C4935",
"3  c #3D5534",
"4  c #294322",
"5  c #3A621E",
"6  c #53461B",
"7  c #4D4D1A",
"8  c #4B4825",
"9  c #554727",
"0  c #445A2D",
"q  c #47562A",
"w  c #565628",
"e  c #474C38",
"r  c #445B34",
"t  c #4A5C3C",
"y  c #475838",
"u  c #575735",
"i  c #524F30",
"p  c #784728",
"a  c #685537",
"s  c #745539",
"d  c #6D4F2C",
"f  c #466828",
"g  c #4C6434",
"h  c #4B633C",
"j  c #4B6937",
"k  c #536C3D",
"l  c #556638",
"z  c #54733B",
"x  c #58763B",
"c  c #51752D",
"v  c #637A3B",
"b  c #6D673C",
"n  c #5D6116",
"m  c #183559",
"M  c #142C53",
"N  c #293954",
"B  c #162667",
"V  c #173868",
"C  c #172B77",
"Z  c #1A3375",
"A  c #0D2971",
"S  c #243776",
"D  c #25366A",
"F  c #091D59",
"G  c #423C48",
"H  c #1A4159",
"J  c #2E4B52",
"K  c #34497B",
"L  c #334F6A",
"P  c #474849",
"I  c #495844",
"U  c #57584B",
"Y  c #795C46",
"T  c #4D6243",
"R  c #4A6049",
"E  c #546B43",
"W  c #576948",
"Q  c #5D7B4B",
"!  c #5B7646",
"~  c #596953",
"^  c #5E7853",
"/  c #637D44",
"(  c #62744B",
")  c #637C4C",
"_  c #677845",
"`  c #627454",
"'  c #637C54",
"]  c #687A59",
"[  c #6F6C4E",
"{  c #56766C",
"}  c #4B6868",
"|  c #6B7764",
" . c #717A6A",
".. c #6D7270",
"X. c #435E67",
"o. c #803C29",
"O. c #8A5537",
"+. c #8B4F33",
"@. c #8C633C",
"#. c #865B47",
"$. c #995C47",
"%. c #8E554B",
"&. c #876449",
"*. c #976749",
"=. c #8A6A52",
"-. c #966755",
";. c #8D7453",
":. c #A26557",
">. c #A05C45",
",. c #5B833D",
"<. c #5B8935",
"1. c #5C9138",
"2. c #63843C",
"3. c #65893A",
"4. c #6E923C",
"5. c #5D8343",
"6. c #5C8647",
"7. c #598957",
"8. c #638445",
"9. c #638A43",
"0. c #64844B",
"q. c #6B854C",
"w. c #658A4B",
"e. c #6B8A4D",
"r. c #6B8746",
"t. c #72874D",
"y. c #679245",
"u. c #658354",
"i. c #6A8453",
"p. c #6D8C54",
"a. c #6B835C",
"s. c #698859",
"d. c #718A54",
"f. c #738B5B",
"g. c #748558",
"h. c #75935A",
"j. c #6E9252",
"k. c #5B8369",
"l. c #688564",
"z. c #768866",
"x. c #789163",
"c. c #7D8C71",
"v. c #728E74",
"b. c #859577",
"n. c #858E71",
"m. c #8DA37A",
"M. c #152C8A",
"N. c #183489",
"B. c #193599",
"V. c #123097",
"C. c #263896",
"Z. c #253392",
"A. c #1736A4",
"S. c #1A3BB9",
"D. c #132DA8",
"F. c #263BB8",
"G. c #2437A6",
"H. c #2E468E",
"J. c #1941A8",
"K. c #1E47BA",
"L. c #2742B9",
"P. c #3047AB",
"I. c #1A438B",
"U. c #47558F",
"Y. c #56688A",
"T. c #6776A9",
"R. c #5F6A9B",
"E. c #193DC7",
"W. c #193CD9",
"Q. c #0D37D6",
"!. c #253EC5",
"~. c #223ED8",
"^. c #1C3EE4",
"/. c #153EEA",
"(. c #1B3DEB",
"). c #173BE4",
"_. c #163DF2",
"`. c #213DE8",
"'. c #1E44C9",
"]. c #1A43D6",
"[. c #1642DD",
"{. c #1B41DC",
"}. c #1745D5",
"|. c #0D41D5",
" X c #2643C8",
".X c #2546D7",
"XX c #324CCE",
"oX c #1641E4",
"OX c #1A41E3",
"+X c #1B41EC",
"@X c #1945E9",
"#X c #1A43F4",
"$X c #2443E4",
"%X c #334AEE",
"&X c #7989AF",
"*X c #758C82",
"=X c #899A84",
"-X c #8F9091",
";X c #98A889",
":X c #99AA92",
">X c #A7B69C",
",X c #A4AB95",
"<X c #ABBAA6",
"1X c #B1B9A9",
"2X c #B6B8B7",
"3X c #A7A9A6",
"4X c #9A9BA4",
"5X c #C3BEAB",
"6X c #B7C6AA",
"7X c #B8C7AF",
"8X c #AFC09E",
"9X c #C6D5B9",
"0X c #C2C9B8",
"qX c #94A6CA",
"wX c #AABAD7",
"eX c #AFBBD1",
"rX c #9DA8DA",
"tX c #B4C3D9",
"yX c #BDCBE5",
"uX c #CAD6C3",
"iX c #D3DDC8",
"pX c #D9DCD8",
"aX c #C9CBC9",
"sX c #D7E5CB",
"dX c #DBE6D5",
"fX c #C9E0C3",
"gX c #E2EADA",
"hX c #E7F3D7",
"jX c #C8D6F2",
"kX c #D8E7FA",
"lX c #E8EBE6",
"zX c #EDF4E4",
"xX c #EDF4EC",
"cX c #EBF8E7",
"vX c #F2FEE5",
"bX c #F3F4EC",
"nX c #F4FDEC",
"mX c #FBFDED",
"MX c #F7F8E8",
"NX c #F5EFF4",
"BX c #EBF6FC",
"VX c #F5F5F3",
"CX c #FAF5F4",
"ZX c #F5FBF3",
"AX c #FFFFF7",
"SX c #FEFEF5",
"DX c #FCFEF4",
"FX c #F4F5FC",
"GX c #FCF6FB",
"HX c #F5FDFD",
"JX c #FEFFFA",
"KX c #FDFEF9",
"LX c #FFFDFF",
"PX c #FEFEFD",
"IX c #FDFEFC",
"UX c #E9EEFC",
/* pixels */
"SXSXSXSXSXSXKXKXKXZXPXPXGXPXLXPXPXPXGXVXKXSXbXSXDXDXSXSXKXKXPXPXPXPXPXPXKXSXSXSXSXSXKXKXKXPXPXPXKXDXmXmXmXmXmXSXSXSXGXKXKXSXDXDX",
"SXSXSXSXSXSXKXKXVXKXDXKXZXPXPXVXGXPXKXZXSXSXSXMXSXSXSXSXKXKXPXPXPXPXPXPXKXSXSXSXSXSXSXKXKXPXPXPXKXCXmXMXDXDXDXmXSXKXPXKXKXDXDXDX",
"SXSXSXSXKXKXKXKXKXKXVXZXKXlXKXKXKXDXxXDXSXSXSXSXSXSXSXKXKXKXKXPXPXPXPXKXKXKXSXSXSXSXSXKXKXKXKXKXPXKXKXSXSXmXSXKXKXPXPXKXKXDXDXDX",
"SXSXSXSXKXKXKXKXVXKXDXDXDXDXnXnXzXzXgXSXzXSXKXKXKXKXKXKXKXKXKXKXKXKXKXKXSXSXKXSXSXSXSXSXDXKXKXKXPXGXPXKXKXbXDXKXKXKXKXKXKXSXDXDX",
"DXSXSXKXKXPXPXPXPXKXnXzXz.] z.nX9X` W iXDXDXZXVXKXPXPXPXKXKXKXKXDXDXDXDXDXSXSXSXKXSXSXDXDXDXDXKXPXPXCXPXSXKXSXDXKXKXZXVXZXSXDXmX",
"DXDXDXKXKXPXPXPXZXKXDX=X3 ] E h r ! T ] cXDXKXKXPXPXPXPXPXKXKXSXDXDXDXDXDXKXKXKXKXKXKXKXDXDXDXDXZXPXIXKXbXSXZXKXKXKXPXZXSXKXSXmX",
"DXDXDXKXKXPXPXPXKXZXDX=XW l.x.k ) b.! z.mXDXbXPXPXPXPXPXPXKXKXSXDXDXSXSXKXPXPXPXPXPXKXKXKXDXSXDXKXlXdXZXnXsXiXzXxXDXKXPXKXKXKXSX",
"DXDXKXKXKXPXPXKXZXSXnXdXh Q ! p.i.E k 9XvXDXDXIXPXPXPXPXPXKXKXSXDXDXSXKXPXPXPXPXLXPXPXPXKXKXSXDXuX~ y b.>X] I | dXxXKXPXGXSXKXKX",
"KXZXKXZXDXKXSXZXDXDXmX;Xr u.Q i.p.j i.vXmXDXKXIXIXIXPXPXPXKXZXDXSXKXKXKXPXPXPXIXPXPXLXPXVXCXKXSXz.W ' ( : ( g.] I gXDXVXGXPXPXPX",
"KXKXKXZXKXZXbXSXSXuX .y ' a.f.u.) x.0 6XmXbXZXPXPXPXPXGXGXKXKXKXCXSXKXKXPXGXGXLXNXPXNXGXPXPXVXDX;Xg f.i.n.p.) ` y sXSXVXPXPXNXLX",
"ZXKXKXZXKXnXDXDX0XT ~ z.l.r 3 ! ] a.T 9XnXnXKXZXCXPXPXLXKXKXKXVXKXSXSXKXKXKXSXKXPXPXPXLXLXLXPXSXsXq h./ x 8.f.r b.mXnXKXxXCXPXGX",
"GXKXKXVXDXDXDXuXy z.] ] t 6X<X` ` t =XvXbXSXKXSXKXPXPXKXSXKXKXKXKXSXSXDXnXnXDXSXnXZXDXlXPXLXLXDX>Xg x r.d.d.k j vXnXDXlXPXPXCXPX",
"PXGXPXZXDXDXdXz.` ]  .y 9XmXDXiX:X3XdXSXSXSXbXKXSXCXZXKXKXSXSXKXSXSXDXmXmXmXmXvXmXgXDXSXDXVXPXdXW i.i.i.0.d.z j ;XnXcXKXZXPXCXPX",
"PXGXPXKXDXmX>X3 ' c.I 9XDXzXKXbXxXKXKXKXSXSXSXSXKXSXSXKXKXZXVXZXzXDXmXsX,Xz.` ( ( ` :XsXnXKXIXuXW ] a.! j k x.a.r c.ZXDXlXKXKXSX",
"LXLXPXKXDXhXa.E x.r z.nXSXbXKXKXPXCXlXgXpXlXSXmXSXSXSXbXZXPXPXKXDX6X` y h ! ) ) ! i.1 y <XnXxXHX| T T ' :XQ g a.a.T ] ZXDXbXSXmX",
"LXPXCXKXDX9X1 z.a.T 6XDXDXSXSXKX0X .| I e W U n.,X9XzXDXDXDXxXuX` T T a.f.0.0.p.p.Q s.' 3 >XZXnXcX6X9XhXvXvX;X3 ` c.y ;XDXmXnXKX",
"DXKXIXHXDXb.g i.( ~ zXSXmXmXuX] 0 k ! ( ) i.' E h h W c.6XfX;X3 ! i.i.) i.p.w.! Q Q ' x.' < 8XsXuXnXnXhXmXmXZX>Xy | a.r hXmXDXPX",
"mXSXIXHXZXl.l f.( | SXbXvX;Xy ! 0.8.e.h.p.x z ! p.Q Q ! h g ! u.u.i.p.Q 1 > > > 1 1 ; ; 3 ; 3 3 t W ^ 6XzXxXxXKX:Xt z.g ;XmXZXPX",
"mXSXPXIXnXW x f.W c.nXDXz.< W ! h.8.f ; ; > 1 > > > j Q 0.u.i.) ! z > > j x ! h.z f 1 1 ' l.z.b.z.` ] e  .DXPXxXcXT a.! ( vXKXPX",
"mXSXPXIXzXr / d.W c.mX] 0 ! ' x.j > > z w.8.0.h.e.! g > > z i.e.z > f w.j.e.x > ; j i.a.a.^ T t I ~ ~  .U | PXIXDXb.W i.W sXKXPX",
"DXSXIXIXdX3 q.r.0 6X;X4 ) Q h.1 > x p.8.5.e.e.x e.e.h.h.p./ / / z w.w.w.0.f > f x.f.Q h T ] ;X:X1X<X| U U P 2XPXDX>Xr f.t 7XKXZX",
"DXSXIXIXuX3 e.8.k z.t ' j w.j > 5.5.8.w.8.! 0.h./ z g 0 0 ! d.p.d.e.p.! : > Q f.i.W r ;X6X| O $  .lXKXdX3XP $ xXHX,Xh x.< <XKXVX",
"DXCXPXHX1X3 d.r.k + ` h Q 5.5 5.5.w.w.5.0.p.) j q 0 r q < 0 t q 1 k j j ' f.f.a.t W iXDX2 2 $     # lXZXKXPX} -XHX>Xh x.1 :XDXKX",
"DXDXPXHX>X3 p.e.g O E E ! 5.j.,.9.5.5.e.0.j 0 1 ] h E z.,X6X9XiX8Xm.` r T z.] 2 ] nXDX..o GX3X. ..  ..KXGXGXPX..xX7Xr x.l b.DXKX",
"DXSXPXIX=Xh r.r.f ; ! k 8.9.5.,.5.5.x j.f ; ] ] y c.>X~ $ $ | zXDXnXDXuX~ I e ,XKXVXPX$   ..G 4XIX| o bXPXGXPX4XlX>XW x.g n.DXKX",
"SXSXIXIX=Xh r.r.x 1 Q k 5.,.,.,.9.,.h.; 1 x.~ 2 0XzX....o   o o dXDXDXZXKX| 3XDXPXPXlXo $ ..o -XHX .  gXVXPXPX-XxX;XW f.g b.DXZX",
"DXSXHXHX=Xr r.e.j ; E k 8.y.y.y.9.z , k x.E e dXSXP aXPXP N PX-X$ PXPXxXPX3X2XKXCXPXlX@ $ pX@ @ ~ X X gXSXSX3X2XZXc.E f.l b.DXZX",
"DXSXHXHX=Xr r.r.z : ! z 8.,.c f > ; z f.W y gXSXpXo ..4Xo 2XUXpX  2XPXbXZX-X2XZXKXlXKXe   $ 1X      X ,X=XU -XZXnX` _ g.t ;XZXZX",
"mXSXIXHX=Xh r.9.x : ! k 8.x 5 5 f p.j < ` gXDXKXaX  o R.U P FX-Xo ..VXKXxX~ zXDXDXmXmX1XX   + X $ + ( W i e SXDXhXT ] d.r :XZXHX",
"mXSXIXHX=Xh e.8.z ; E k e.9.,.,.i.O z.9XnXDXSXKXpX    3X .. o     b.ZX0X~ $ c.,X9XsX9X9X< X r ` ] z.g.[ + 0XDXDXiXt g.g.0 >XZXHX",
"mXSXIXHX=Xh e.8.0.< ! k e.e.9.w.u.^ r ;XmXDXlXKXlX$     2X$     . 2 | < W z.0 r 0 1 g : k f.i.d.] n.b + u i ,XDX7Xt i.d.0 7XKXHX",
"DXKXKXZXb.h i.0./ : k j r.e.8.0.u.u.^ r y n.iXmXDXn.  . + .   O 4 t ] z.] i.f.q.0.e.e.p.q.e.e.q.] 9 % a ;.[ U mX>Xl ) d.0 9XKXHX",
"PXKXDXDXc.T ' u.s.; f c 2.r.g.f.i.i.f.f.' l E ) ;Xz.+ . X O T ` a.i.u.u.0.8.8.8.9.r.e.d.i._ l u - = &.@.=.[ U PXb.l t._ l gXDXZX",
"LXKXmXmXc.T ] u.s.> f f 2.h.( W 8 7 8 q w w l b q l u ( z.z.z.g.g.q.i.q.q.q.t.t.q._ l w 8 8 8 9 %.$.*.*.;.- 4XPXn.l r.x W cXKXIX",
"LXPXmXmXb.h a.u.u.1 f c v d.q 8 a s s s s d 9 % d a 9 9 9 8 i w w n 7 7 8 8 9 9 9 9 9 d s @.*.*.$.*.@.@.% ;XKXVX( _ t.r z.IXHXIX",
"PXPXDXnX=Xh s.0.i.1 > x v v + [ &.$.*.*.-.:.-.-.#.#.&.&.&.s a d d d d d s s Y Y &.&.-.-.-.*.@.O.O.p % & d zXKXiXy ' x.0 ,XIXFXPX",
"PXPXDXnX;Xr p.8.j.f : z k l , ;.*.>.O.+.o.+.$.$.:.:.*.*.*.*.*.*.*.*.*.*.*.*.*.=.*.&.#.s d d & & & p O.@.8 5XDX=XT i.p.q 9XDXZXPX",
"LXPXZXZX>X0 e.8.w.x : E W l : w @.*.*.+.* * * * * * p +.O.@.+.O.$.%.O.+.+.p p p & & & & p s #.#.-.&.;.Y u iX7X2 a.u.k k hXmXSXDX",
"PXIXZXKX7X1 e.2.2.8.< W ^ W w , 6 d s &.;.=.&.O.O.p p * * * & * = = = = = p p p +.+.O.$.$.:.:.-.&.;.a 9 n.1Xy l.l.u.0 m.vXmXDXDX",
"PXIXZXKX9X1 e.3.9.8.4 T ~ ( g.v 7 7 7 7 w b &.=.=.=.-.*.*.*.O.-.-.-.-.-.-.-.-.*.*.*.*.*.*.%.#.s 9 9 8 +  .W ] a.' ' r 9XmXmXDXKX",
"PXPXVXZXdXr x 3.,.j.3 3 ` ~ ! q.p.8.x g q 8 8 8 u a a Y Y Y &.&.#.#.#.&.#.#.Y Y a a i 9 6 6 8 w w _ g.q : x.u.u.l.3 z.ZXZXNXPXGX",
"PXPXPXKXcXE ! 2.9.8.E + R R ] u.6.w.p.p.i.) _ ( i i i i 8 8 8 8 6 6 6 6 6 8 8 8 i u l v / r.r.q.t.( z.t h ) f.) 3 ~ dXZXIXPXPXLX",
"KXKXPXKXnX' z 8.8.5.s.+ # 2 ~ ^ u.0.8.! 8.q.t.r.d.t.t.t.t.q.) q.2.<.3.3.3.r.y.j.9.9.9.9.9.9.9.0.l.*XJ # J l.' k W 9XDXKXZXPXPXLX",
"KXSXKXZXnX=X0 p.8.8.p.h X # J R ^ i.p.w.8.r.8.v v v 2.2.2.8.8.6.y.1.1.<.<.<.<.<.y.6.5.6.6.7.7.k.} m D m N ..y h 7XDXnXZXZXKXKXPX",
"KXKXKXnXDX7X< x.8.8.w.u.4 # # N J ~ l.a.) / r.e.3.3.3.2.9.6.6.9.2.8.8.3.3.3.3.9.5.6.l.v.k.} J H A B.P.H.H.@ { sXmXzXSXzXmXmXMXDX",
"SXSXSXDXDXgXI ! s.,.5.w.^ J m M @ # J { v.l.u.! 0.9.9.8.w.6.6.u.u.a.a.a.a.a.a.l.l.{ L H V V Z N.A.XX XL.H.T.HXSXSXbXKXSXmXmXmXmX",
"DXmXDXSXDXnX=X3 s.,.,.5.l.{ m V H.V F m J X.{ l.k.l.a.l.l.l.l.l.{ { { } X.L L K B C N.B.G.L.L. X.XE..XD.P.HXHXlXCXPXVXPXbXbXKXZX",
"DXmXKXKXZXDXsX< ' e.3.<.6.v.M Z N.N.I.I.I.A m V H H J J J J N D V V V V Z N.N.B.L.L. X X~.~..X.XW.W.$X.XD.H.jXIXLXNXLXCXKXSXKXDX",
"SXCXPXPXPXKXnXb.t ) 3.c <.x.N C B.A.J.K.'.'.'.K.J.J.J.J.S.S.F.F. X X X X X X X X.X~.~.~.W.W.{.W.W.$XQ.W..XD.C.rXIXFXGXCXDXmXSXZX",
"DXKXPXFXPXxXKXaX$ T r.4.4.u.m Z B.D.S.].{.OXOX[.{.].].].{.^.`.`.(.^.^.^.^.^.^.^.^.^.^.^.^.{.{.{.~.%X$XW.$X XA.N.wXLXLXCXDXCXKXDX",
"SXKXPXFXPXZXIX4X@ N I Q s.{ m N.A.D.E.{.OX).+XOXOX{.{.{.OXOX`.`.^.^.^.^.^.^.^.^.^.^.^.^.^.^.).OXW.E.].{.]..XL.M.U.UXLXCXSXSXDXKX",
"SXbXPXPXZXIXBXN D B M J } X.V N.A.D.E..X^.).+X+X^.{.{.].W.W.^.^.{.{.{.{.{.{.^.OX^.).^.).^.).).OX.XE.}.$X|.E. XP.B wXLXGXKXKXKXKX",
"DXmXPXKXcXHXjXM Z.Z.N.B m m A B.A.D.E..XW.).+X+XOX{.{.].{.{.{.{.].].].].{.{.{.{.{.{.OXOX).OXOX{.].}.[.|.[.}.'.L.C T.IXPXGXDXDXnX",
"DXSXDXDXDXBX4XB G.F.G.M.C A M.A.A.D.S..X{.^.(.(.).oX[.[.[.[.{.{.].}.}.}.[.[.[.[.{.[.OXOXOXOXOXoXQ.@XoXQ.@X@X'.L.N.U.HXIXZXDXDXnX",
"SXSXbXZXDXHXY.B G.D.D.V.C.N.A.A.A.D.S.'.{.^.+X(././.).oX[.[.).).[.[.[.[.[.[.[.oXoXoXoXoXoXoX).).#X#X#X#X#XQ.E.L.M.R.BXFXKXDXmXDX",
"DXKXKXDXzXHXY.B C.D.D.V.J.M.A.V.V.V.S. X].OX+X(.+X#XoXoXoXoXOXoXoXoXoXoXoXoXoXoXoXoXoXoXoXoXOXOX/./._.#X).$XXXP.C qXHXFXKXSXzXDX",
"KXZXKXKXZXHXeXm Z Z.C.B.N.N.B.A.B.B.A.S.E.{.{.)./././././.oX)././././.oXoXoXOXOX@X{.W.W.W.].].{.^.^.W.W..X XG.C &XUXIXZXSXDXDXDX",
"KXZXKXDXnXIXBXwXD B F Z N.N.N.B.M.M.V.A.L. X{.W.^.).(.+X+X+X(.(.#X#X#X+X(.).W.W.Q.W.{..X.X.X'.E. X XXXL.M.C U.qXkXHXVXbXSXSXCXSX",
"KXDXKXKXVXHXHXHXBXwXY.D M F B C Z.B.B.A.F.!.~..X~.`.`.`.`.^.).).).).(.(.`.`.W.W..X.X.X X!.E.!.L.M.C C H.T.wXkXHXIXKXbXmXDXCXCXLX",
"KXKXKXKXKXVXxXHXHXHXBXkXyXqXR.H.S Z A A C M.B.G.F.F.!.!.!. XXXXX X X X!.!.!.F.F.A.A.B.V.V.C.P.P.T.qXjXkXBXHXIXZXzXmXmXDXmXCXPXGX",
"KXKXDXZXKXKXDXKXZXIXIXHXBXHXHXHXUXkXtXqX&XR.Y.Y.K K S S Z Z Z Z Z Z Z S S K K K U.R.&XqXwXjXUXHXHXBXBXHXIXDXnXDXmXmXDXmXbXKXPXGX",
"DXKXSXDXSXSXSXSXDXZXZXIXPXHXIXPXKXKXZXHXHXHXHXHXUXkXkXjXyXtXeXeXeXwXtXyXjXkXkXUXHXHXIXIXIXIXHXZXKXDXKXKXKXDXDXDXSXnXSXSXSXKXKXLX",
"ZXKXSXDXmXDXDXbXSXSXKXPXPXSXMXmXKXLXPXPXPXIXHXHXIXIXIXIXIXIXIXIXIXIXIXIXIXIXIXPXFXFXCXCXZXKXKXKXbXKXKXbXVXPXPXPXHXFXPXPXPXKXCXKX",
"KXSXDXmXmXSXSXSXDXKXPXLXCXSXmXmXLXLXLXKXKXKXPXPXIXIXIXLXLXLXIXIXIXIXLXLXLXLXLXLXPXPXPXKXKXKXSXSXSXSXKXPXPXLXLXLXPXPXIXBXGXKXZXKX"
};
