/* XPM */
static char *_8a2e004edfc4ad1b999da23a14dbfb27TDm9BzSHpzd7gAM[] = {
/* columns rows colors chars-per-pixel */
"64 64 256 2 ",
"   c #010201",
".  c #050607",
"X  c #0F130E",
"o  c #2F3128",
"O  c #192422",
"+  c #7D1205",
"@  c #741922",
"#  c #473831",
"$  c #662A21",
"%  c #2F5615",
"&  c #0E6F17",
"*  c #347213",
"=  c #38522E",
"-  c #18772E",
";  c #386928",
":  c #135A13",
">  c #515912",
",  c #775417",
"<  c #485135",
"1  c #785929",
"2  c #6D5B2D",
"3  c #58682C",
"4  c #476A36",
"5  c #497938",
"6  c #536F36",
"7  c #686A35",
"8  c #6A7739",
"9  c #6E692D",
"0  c #5F6E17",
"q  c #0D3173",
"w  c #592A55",
"e  c #6E3068",
"r  c #5B1F52",
"t  c #335354",
"y  c #18705C",
"u  c #3A7049",
"i  c #2F5371",
"p  c #22656E",
"a  c #4D534F",
"s  c #6F4F49",
"d  c #496846",
"f  c #556B47",
"g  c #487549",
"h  c #587645",
"j  c #517056",
"k  c #6A784E",
"l  c #4A7664",
"z  c #536C66",
"x  c #6C746B",
"c  c #614A72",
"v  c #921008",
"b  c #B91609",
"n  c #B0140E",
"m  c #8B2A11",
"M  c #B12413",
"N  c #973027",
"B  c #A32D31",
"V  c #A11622",
"C  c #D01410",
"Z  c #F5040B",
"A  c #F80515",
"S  c #E80F0C",
"D  c #D1270D",
"F  c #D51029",
"G  c #E90D23",
"H  c #D1312B",
"J  c #927316",
"K  c #854A27",
"L  c #96482A",
"P  c #885B34",
"I  c #945833",
"U  c #92522E",
"Y  c #A65235",
"T  c #896438",
"R  c #98653C",
"E  c #85763D",
"W  c #AF672F",
"Q  c #A15F18",
"!  c #F24D19",
"~  c #FA7919",
"^  c #E77C15",
"/  c #FF4F2C",
"(  c #FE7B24",
")  c #FC7A29",
"_  c #FA7533",
"`  c #C96233",
"'  c #8E694A",
"]  c #A56A46",
"[  c #9B5A54",
"{  c #F87C43",
"}  c #CD6F70",
"|  c #D46845",
" . c #058E19",
".. c #02941C",
"X. c #029719",
"o. c #16890B",
"O. c #278F0E",
"+. c #028D27",
"@. c #178628",
"#. c #029323",
"$. c #059729",
"%. c #0D9033",
"&. c #0FA12C",
"*. c #5B8E3A",
"=. c #63993D",
"-. c #71883D",
";. c #70B118",
":. c #0C8A4B",
">. c #278256",
",. c #5A874B",
"<. c #5E9C43",
"1. c #5C9748",
"2. c #598B56",
"3. c #668A49",
"4. c #768648",
"5. c #639444",
"6. c #699545",
"7. c #649A45",
"8. c #65964C",
"9. c #6B954B",
"0. c #649A4B",
"q. c #6B9B4C",
"w. c #699A44",
"e. c #74994A",
"r. c #6B9B52",
"t. c #669754",
"y. c #759955",
"u. c #718D57",
"i. c #6EA552",
"p. c #548B6E",
"a. c #689B65",
"s. c #6F9270",
"d. c #71A877",
"f. c #63CA45",
"g. c #9D9C25",
"h. c #EF8817",
"j. c #F2832E",
"k. c #F1A92D",
"l. c #DB9B25",
"z. c #8DC835",
"x. c #F4ED3B",
"c. c #EDF438",
"v. c #F5F43B",
"b. c #E9EA39",
"n. c #FFC63A",
"m. c #878C50",
"M. c #AAAE4B",
"N. c #889572",
"B. c #B2896F",
"V. c #A2AF68",
"C. c #EF8843",
"Z. c #ED8865",
"A. c #B0E54E",
"S. c #FFD645",
"D. c #DDF94D",
"F. c #FBEB45",
"G. c #EAF747",
"H. c #F8F445",
"J. c #F6F854",
"K. c #F1F358",
"L. c #D3FF6B",
"P. c #F1F367",
"I. c #D0D055",
"U. c #14398F",
"Y. c #223991",
"T. c #0C38AE",
"R. c #773EB3",
"E. c #693F91",
"W. c #184A89",
"Q. c #104692",
"!. c #2E4E8F",
"~. c #2C7490",
"^. c #1348B2",
"/. c #2A51AF",
"(. c #19759A",
"). c #42548B",
"_. c #4E6D93",
"`. c #697987",
"'. c #5072AD",
"]. c #684BA7",
"[. c #093DC9",
"{. c #073EFA",
"}. c #133CF3",
"|. c #0C45D7",
" X c #1147D1",
".X c #2D56CB",
"XX c #2D6BD2",
"oX c #1445E9",
"OX c #0444FC",
"+X c #0A45FD",
"@X c #034AFD",
"#X c #0847F6",
"$X c #1345F9",
"%X c #0949ED",
"&X c #2B5CFC",
"*X c #335DFA",
"=X c #3E5EEA",
"-X c #3864EB",
";X c #2C63FD",
":X c #2B65F5",
">X c #3563FD",
",X c #3666F7",
"<X c #2C68EA",
"1X c #4F57D3",
"2X c #4657E7",
"3X c #5E55D8",
"4X c #9A3598",
"5X c #913291",
"6X c #9235A4",
"7X c #A130A0",
"8X c #994595",
"9X c #936E93",
"0X c #1C8086",
"qX c #72948F",
"wX c #7796AB",
"eX c #658E9C",
"rX c #7491D2",
"tX c #7BA5DF",
"yX c #8F958A",
"uX c #A68A8C",
"iX c #A8A98D",
"pX c #8DAEAD",
"aX c #AEB2AA",
"sX c #959FB1",
"dX c #CBADAA",
"fX c #DDA197",
"gX c #B3C5B1",
"hX c #9EC199",
"jX c #E9D4B6",
"kX c #D7D6A1",
"lX c #8FADD1",
"zX c #A5AED4",
"xX c #90B5EE",
"cX c #B2C7C4",
"vX c #B9D9FB",
"bX c #AECEF4",
"nX c #B7E5DA",
"mX c #D2D2D0",
"MX c #F6D1D0",
"NX c #D3EBD8",
"BX c #F1F2D2",
"VX c #CEDCF6",
"CX c #C8E7FF",
"ZX c #D7F9FE",
"AX c #D4EFF8",
"SX c #FCE7E8",
"DX c #FEFCEB",
"FX c #F5FAEA",
"GX c #E8F8FC",
"HX c #F3FDF4",
"JX c #FDFDF5",
"KX c #FDF6FD",
"LX c #F6FFFD",
"PX c #FEFEFE",
"IX c #F9F5F7",
"UX c #EFF3ED",
/* pixels */
"PXPXPXPXPXPXPXPXPXPXPXPXPXPXPXPXPXPXPXPXPXPXPXPXPXPXPXPXPXPXPXPXPXPXPXPXPXPXPXPXPXPXPXPXPXPXPXPXPXPXPXPXPXPXPXPXPXPXPXPXPXPXPXPX",
"PXPXPXPXPXPXPXPXPXPXPXPXPXPXPXPXPXPXPXPXPXPXPXPXPXPXPXPXPXPXPXPXPXPXPXPXPXPXPXPXPXPXPXPXPXPXPXPXPXPXPXPXPXPXPXPXPXPXPXPXPXPXPXPX",
"PXPXPXPXPXPXPXPXPXPXPXPXPXPXPXPXPXPXPXPXPXPXPXPXPXPXPXPXPXPXPXPXPXPXPXPXPXPXPXPXPXPXPXPXPXPXPXPXPXPXPXPXPXPXPXPXPXPXPXPXPXPXPXPX",
"PXPXPXPXPXPXPXPXPXPXPXPXPXPXPXPXPXPXPXPXPXPXPXPXPXPXPXPXPXPXPXPXPXPXPXPXPXPXPXPXPXPXPXPXPXPXPXPXPXPXPXPXPXPXPXPXPXPXPXPXPXPXPXPX",
"PXPXPXPXPXPXPXPXPXPXPXPXPXPXPXPXPXPXPXPXPXPXPXPXPXPXPXPXPXPXPXPXPXPXPXPXPXPXPXPXPXPXPXPXPXPXPXPXPXPXPXPXPXPXPXPXPXPXPXPXPXPXPXPX",
"PXPXPXPXPXPXPXPXPXPXPXPXPXPXPXPXPXPXPXPXPXPXPXPXPXPXPXPXPXPXPXPXPXPXPXPXPXPXPXPXPXPXPXPXPXPXPXPXPXPXPXPXPXPXPXPXPXPXPXPXPXPXPXPX",
"PXPXPXPXPXPXPXPXPXPXPXPXPXPXPXPXPXPXPXPXPXPXPXPXPXPXPXPXPXPXPXPXPXPXPXPXPXPXPXPXPXPXPXPXPXPXPXPXPXPXPXPXPXPXPXPXPXPXPXPXPXPXPXPX",
"PXPXPXPXPXPXPXPXPXPXPXPXPXPXPXPXPXPXPXPXPXPXPXPXPXPXPXPXPXPXPXPXPXPXPXPXPXPXPXPXPXPXPXPXPXPXPXPXPXPXPXPXPXPXPXPXPXPXPXPXPXPXPXPX",
"PXPXPXPXPXPXPXPXPXPXPXPXPXPXPXPXPXPXPXPXPXPXPXPXPXPXPXPXPXPXPXPXPXPXPXPXPXPXPXPXPXPXPXPXPXPXPXPXPXPXPXPXPXPXPXPXPXPXPXPXPXPXPXPX",
"PXPXPXPXPXPXPXPXPXPXPXPXPXPXPXPXPXPXPXPXPXPXPXPXPXPXPXPXPXPXPXPXPXPXPXPXPXPXPXPXPXPXPXPXPXPXPXPXPXPXPXPXPXPXPXPXPXPXPXPXPXPXPXPX",
"PXPXPXPXPXPXPXPXPXPXPXPXPXPXPXPXPXPXPXPXPXPXPXPXPXPXPXPXPXPXPXPXPXPXPXPXPXPXPXPXPXPXPXPXPXPXPXPXPXPXPXPXPXPXPXPXPXPXPXPXPXPXPXPX",
"PXPXPXPXPXPXPXPXPXPXPXPXPXPXPXPXPXPXPXPXPXPXPXPXPXPXPXPXPXPXPXPXPXPXPXPXPXPXPXPXPXPXPXPXPXPXPXPXPXPXPXPXPXPXPXPXPXPXPXPXPXPXPXPX",
"PXPXPXPXPXPXPXPXPXPXPXPXPXPXPXPXPXPXPXPXPXPXPXPXPXPXPXPXPXPXPXPXPXPXPXPXPXPXPXPXPXPXPXPXPXPXPXPXPXPXPXPXPXPXPXPXPXPXPXPXPXPXPXPX",
"PXPXPXPXPXPXPXPXPXPXPXPXPXPXPXPXPXPXPXPXPXPXPXPXPXPXPXPXPXPXPXPXPXPXPXPXPXPXPXPXPXPXPXPXPXPXPXPXPXPXPXPXPXPXPXPXPXPXPXPXPXPXPXPX",
"PXPXPXPXPXPXPXPXPXPXPXPXPXPXPXPXPXPXPXPXPXPXPXPXPXPXPXPXPXPXPXPXPXPXPXPXPXPXPXPXPXPXPXPXPXPXPXPXPXPXPXPXPXPXPXPXPXPXPXPXPXPXPXPX",
"PXPXPXPXPXPXPXPXPXPXPXPXPXPXPXPXPXPXPXPXPXPXPXPXPXPXPXPXPXPXPXPXPXPXPXPXPXPXPXPXPXPXPXPXPXPXPXPXPXPXPXPXPXPXPXPXPXPXPXPXPXPXPXPX",
"PXPXPXPXPXPXPXJXPXPXPXPXLXPXPXPXPXPXPXPXPXPXPXPXPXPXPXPXPXPXPXPXPXPXPXJXJXPXPXPXPXPXPXPXPXPXPXPXPXPXLXPXPXPXJXPXPXJXLXPXPXPXPXPX",
"PXPXPXPXPXPXPXPXPXPXLXPXPXPXPXPXPXLXPXPXPXPXPXPXPXPXPXPXLXPXPXPXPXPXPXPXJXJXPXPXKXKXPXPXPXLXPXPXPXPXLXPXPXJXPXPXLXLXPXPXKXPXPXPX",
"PXPXPXLXPXLXPXPXPXPXPXPXPXPXPXLXPXPXJXJXPXPXPXPXPXPXPXPXPXPXPXPXPXPXJXPXPXPXPXPXPXPXPXPXPXPXJXJXJXPXPXJXJXPXPXPXPXLXPXPXKXPXPXPX",
"LXLXLXPXPXPXLXPXPXJXPXJXPXPXJXJXPXJXPXPXPXPXPXPXPXKXPXPXPXLXJXLXPXPXPXPXPXPXPXLXPXJXPXPXPXPXJXJXPXJXPXJXJXPXJXJXPXPXPXPXPXJXPXLX",
"LXJXPXPXPXPXLXLXLXLXPXPXPXJXJXJXPXPXLXPXPXPXPXPXPXPXPXPXPXLXLXPXIXJXPXJXPXPXLXPXJXJXJXPXKXPXPXPXPXPXPXJXPXPXJXJXJXPXPXKXKXPXLXLX",
"PXPXPXPXPXLXLXLXLXLXPXPXPXJXJXPXPXPXPXPXPXPXPXLXPXPXKXPXPXLXPXPXPXJXJXPXPXLXPXPXJXLXLXLXPXKXKXPXPXPXPXPXPXPXPXJXJXJXPXPXPXPXLXLX",
"PXJXPXPXPXPXPXLXPXPXPXPXPXPXPXPXPXPXLXLXPXPXPXLXLXPXPXPXPXPXPXJXJXDXJXPXPXPXPXPXJXLXLXLXPXPXJXPXJXPXPXPXJXPXLXLXLXLXPXJXKXJXPXLX",
"PXPXPXPXPXPXPXPXPXJXPXJXPXPXLXPXJXPXPXLXKXPXPXPXPXJXJXDXDXDXBXMXBXBXBXDXLXJXFXHXGXGXZXUXHXLXLXGXLXLXPXKXPXPXLXLXLXHXPXPXPXPXJXPX",
"PXPXPXPXPXPXPXPXPXKXJXIXPXLXLXLXIXJXPXPXPXPXPXFXFXBXjXiXV.M.M.M.M.M.V.V.hXs.2.u ; >.>.t.d.qX'.eXlXVXPXKXKXKXPXPXPXJXJXPXKXPXJXDX",
"PXPXPXLXLXLXPXPXPXJXJXPXJXJXPXPXDXMXkXdXdXjXjXkXV.V.M.I.P.P.P.P.P.P.A.* & - @.@.@.@.@.- - y /.XXQ.!.zXKXPXPXKXPXPXPXPXPXKXPXJXDX",
"PXPXPXLXPXJXPXPXLXIXLXJXDXDXMXB.W Y W W J J l.I.K.J.P.J.J.J.G.K.L.z.O. .&.$.+.%.#.$.%.%.:.0X-X>X,X.X/.'.'.zXKXKXIXPXKXIXLXLXPXPX",
"PXPXJXPXPXLXPXPXLXLXJXJXFXB.Q ` { C.j.^ k.S.J.F.v.v.v.v.c.H.b.G.J.z.o.$.X.X.$.#.#.#. .%.:.>.XX>X*X>X=X.X1X).i zXLXPXPXLXLXLXIXPX",
"PXPXPXJXJXPXPXPXLXPXDXjXR Q C.j._ j.h.l.S.H.H.H.v.v.c.v.v.v.G.G.D.L.O.X.$.......$...#.+.%.y XX&X>X&X*X,X-X-X2XY.zXPXIXLXLXLXPXPX",
"PXPXPXPXPXPXJXJXIXiX' I | j.) ~ ( h.h.k.J.H.b.c.v.v.v.v.v.v.J.G.A.;.o.X.X.&. ...#.$.$.%.:.(.XX;X*X>X;X&X;X,X=X1Xc KXPXKXLXLXPXKX",
"PXPXPXPXPXPXPXDXB.U C.{ j.( ~ ~ ( ~ ~ h.F.H.H.H.v.x.v.v.H.H.D.;.O. . .X.X.X.$...$.$.:.:.(.<X:X;X;X>X;X:X&X*X2X3XE.w zXKXPXIXPXPX",
"PXPXPXPXJXPXPXDX] | C.) ( ( ( ( ~ ~ ^ h.F.H.H.b.v.x.v.F.J.F.D.;.O.$.X.X.X. ...#.$.$.:.>.XX>X:X;X;X:X:X;X&X2X3XR.6XE.r [ KXPXIXPX",
"PXPXIXPXPXIXJXIX| v ! _ ( ( ) ) h.~ h.k.F.G.H.v.v.H.v.H.H.c.D.D.f. .X.X.#. .&. ...+.:.0X<X:X;X;X;X;X&X,X,X2XR.6X6X5X8Xr 9XPXJXPX",
"IXPXPXJXPXJXKXr V C C ! _ ) ) ) ~ ~ ^ S.H.c.H.v.F.F.H.x.v.c.D.A.O. ...#.$.#.X.$.%.:.(.(.<X:X:X;X;X;X&X*X=X1X6X6X6X6X4Xe uXPXPXLX",
"LXLXJXPXJXJXMX@ F G D ) ( ~ ( ( ~ ( ~ k.J.F.c.v.H.F.H.H.J.K.z.o.o.$.$.%.$.$...%.>.(.XX<X:X>X;X>X;X;X>X>X=X1XR.6X7X5X5Xr KXPXLXLX",
"LXLXPXPXPXJXMXB F G S ! ) ~ ~ ( ( ( ) ^ n.F.v.c.H.H.b.J.P.;.o. .X...$.+.+.&.:.y (.XX<X>X&X&X&X&X;X&X&X*X2X3X6X5X7X4X5Xe mXPXPXLX",
"PXPXHXHXKXIXMXB b S S D _ ( ~ ~ ( ~ ) h.l.F.H.c.c.c.J.J.A.* O.$.$...$.@.%.- y (.XX<X-X,X=X,X>X*X>X>X<X2X3XR.6X6X7X7X8Xr 9XPXKXKX",
"PXPXLXPXSXjXv V G S S / _ ~ ~ h.~ ~ ) j.h.k.S.H.H.G.G.D.L.f.O.@.& @.& & : u l i !././././././././..XXX1X].5X4X4X7X7Xe e KXKXKXPX",
"PXJXJXIXSXm F G A Z Z / { _ ~ ~ ^ h.( ~ j.^ k.k.F.J.P.I.M.=.% : ; : ; 5 ; 4 p.s.l l l l l z z t t t i ).E.8X8X5X7X5Xe PXIXIXJXPX",
"KXPXIXJX9XV F A Z Z Z S / _ _ ( j.j.j.j.j.C.W l.J J > 0 0 3 k h f h f h 2.f j 4 *.*.*.6 5 h f f j j a w e e 5X8X4Xe c PXJXPXJXPX",
"LXLXJXPXuXv G A Z A A Z Z S ~ C.C.Q P , 1 9 2 > > 3 7 4 4 4 < a s.qXk f 3 4 f 3 % 4 ; 5 j 4 j z a x `.z a # r e 8Xw 9XLXPXPXLXHX",
"LXLXLXIXSXB G A Z Z Z A S S D ` , 9 4.m.4.3 h 4 f d < yXx < <   . x UXUXmXaXN.x f u.,.h u.aXyXz a . a mXNXaXuXs # w KXPXKXPXPXLX",
"PXPXPXKXfXV C A Z Z A S C M + , 9 m.5.5 6 6 h 6 k sXKXNX  O < a pX. a FXJXJXJXJXaXa s.mXHXHX. o O a a   BXPXJXPXmXc x PXPXPXJXJX",
"KXKXPXKXr V H G S S C C v L m.-.e.q.,.; h 6 4 iXFXPXPXx   X # X j X   UXIXIXKXPXMXyXPXPXPXyX  o o w a . s.HXPXJXKXKXw aXPXLXPXPX",
"PXKXLXPXdX@ V M C M m $ m.m.y.0.*.<.t.5 3.y.6 4.gXHXPXsX.   . .     < LXHXJXLXIX9XSXKXSXKXdX      .   X UXLXJXDXNXiX= cXHXLXPXPX",
"IXPXPXLXPXMXfXB + m , m.9.q.1.1.0.1.1.5 5 e.r.r.f x aXmXz O . X o x FXFXNXmXuX[ [ } } } fXMXB.o X X o N.aXyXs.x k h a LXLXIXPXPX",
"PXPXPXJXIXIXSXk k m.m.4.6.5.0.r.q.1.8.i.r.7.i.=.i.9.h h u.h h 3.m.N.a.2.8 9 Y | fXZ.H M V N ' ' u.,.t.3.h 3.3.e.u.a gXLXJXPXPXKX",
"LXJXPXPXPXIXs.3 r.r.e.=.e.q.1.0.5.i.8.0.0.7.=.=.5.r.i.y.u.y.m.u.k 4.,.9.m.W H H H ! H C C M K m.u.r.1.q.y.y.-.8 # V.JXJXPXPXIXPX",
"LXHXPXPXHXgX% i.9.t.t.t.8.6.0.7.6.w.8.1.1.<.<.<.q.q.e.4.-.-.8 m.m.y.w.-.m.L M D C H G b b m + ' m.e.9.9.k 1 1 T 2 k JXJXPXJXLXHX",
"LXLXJXJXFX< r.=.8.9.8.8.8.7.7.7.6.9.0.t.0.0.7.5.3.7 2 3 2 9 1 9 7 9 8 m.W L M b n b b v v m + K 8 8 3 2 1 P R ] $ dXPXIXLXIXPXLX",
"LXLXPXJXiX; a.t.8.0.8.0.7.7.0.7.6.q.r.1.<.=.<.y.f 2 k R P K P T ' T P 1 U N m n v v v v v + m L P P T R R R U $ # JXPXPXPXPXKXPX",
"LXPXKXJXk 3.9.t.9.0.0.0.7.7.1.7.0.<.1.<.<.i.<.=.4.7 2 1 P P P K K K K I R U m v v v + v + + N ] I U U L K K P 1 s PXKXJXKXKXKXPX",
"JXPXKXUX4 u.0.5.7.7.7.7.7.7.0.7.<.<.<.7.=.=.w.6.y.u.3.8 7 2 9 P I I I U U U L N m m v + m K L L U U I Y Y ] k # aXPXLXPXPXPXJXJX",
"PXJXPXBX< t.7.=.=.7.7.7.0.7.0.7.<.<.7.7.=.=.=.=.6.r.9.9.6.-.8 8 9 1 1 1 P T T R I I I T R R I I ' P P U K 1 s d KXPXPXPXPXKXPXPX",
"PXPXKXmX= r.7.=.7.7.0.0.7.w.0.8.0.6.3.9.e.9.5 * *.7.w.7.q.e.e.-.e.-.4.8 7 9 9 0 9 9 8 0 3 3 3 7 6 6 3 8 4.m.h yXJXUXJXJXLXLXPXKX",
"PXIXLXsXu d.1.<.7.w.0.6.=.7.0.t.8.q.0.8.9.q.8.*.4 =.6.5.7.=.=.6.w.7.q.y.9.9.e.m.u.y.y.9.r.y.9.r.0.q.i.e.i.qXd gXHXJXJXJXJXLXPXPX",
"PXHXKXqXO eXa.1.7.7.<.<.=.w.7.w.<.i.<.7.w.7.0.i.r.r.1.w.y.r.r.8.7.t.t.t.1.6.w.6.6.r.r.q.q.i.3.5.3.9.r.2.l _.t cXPXPXJXIXLXLXLXPX",
"PXIXLX`.U.Q.p p.s.a.t.<.<.7.7.7.<.<.<.<.7.7.1.0.a.; 2.>.g g ,.a.t.t.t.r.r.5.6.8.a.2.h 5 4 h a.d.s.p.u y Q.Y.q _.IXIXPXPXJXGXPXPX",
"PXLXPX).T.|.T.Q.!.l eXp.a.t.r.i.<.<.=.=.w.0.t.a.g p.nXnXpXpXp.u 2.s.t.,.2.y.t.2.>.2.qXcXcX`.i !.W.Q.^.[.|.|. XY.LXPXIXPXPXPXPXPX",
"PXPXLX!.[.+X$X|.T.T.q p p p p.p.p.p.a.2.a.a.s.eXl qXZXZXvXZXZXgXs.u u j j u g x wXZXZXCXAXzXq ^. X|.#X+X+X{.$XT.).GXLXIXKXPXPXPX",
"KXKXGX_. XOX#X}.}.}.|. X XT.T.Q.Q.Q.Q.Q.Q.W.W.W.q rXvXbXCXVXlXqXyXu AXNXGXsXt pXwXvXvXvXvXtX^.|.|.#XOX$X@X#XoX[.T.Y.VXKXPXPXPXPX",
"PXPXGXU.|.@X+XOX$X}.{.OX+X$X$XoX}.|.|. X X X^.^.U.xXVXvXAXCXbXlX_.i tXwXlXwXi pXbXZXCXCXCXrXT.%X#X@XOXOXOX#X+X&X2X.X'.VXKXmXIXPX",
"KXKXAX/.oXOXOXOX}.$XOX#X#X#X#XOX$X#X#X#X%X%X%X XU.xXGXvXbXvXAXbXtX!.xXbXxX_.'.zXbXCXvXvXCX'. X%X#X+X@X@X@X@X@X$X{.oX.XY.zXLXIXJX",
"JXKXGX/.%X@X@XOX+X$X#X#X%X#X#XOXOXOXOX@X@X@X#X|.Q.tXvXvXbXvXvX'.U.Y.Y.U./.U.U.i eXxXvXZXbXQ.[.+X#X#XOXOX@X@X#X@XOX+X}.T.).IXPXJX"
};
